<?xml version="1.0" encoding="utf-8"?>
<!-- Generator: Adobe Illustrator 18.0.0, SVG Export Plug-In . SVG Version: 6.00 Build 0)  -->
<!DOCTYPE svg PUBLIC "-//W3C//DTD SVG 1.1//EN" "http://www.w3.org/Graphics/SVG/1.1/DTD/svg11.dtd">
<svg version="1.1" id="Layer_1" xmlns="http://www.w3.org/2000/svg" xmlns:xlink="http://www.w3.org/1999/xlink" x="0px" y="0px"
	 viewBox="0 0 1536 2048" enable-background="new 0 0 1536 2048" xml:space="preserve">
<g>
	<path fill="#010000" d="M1319.2,1055.8c-8.4-5.2-16.1-11.2-23.7-17.5c-5.3-4.4-10.7-8.9-16.1-13.2c-7-5.5-14.5-10.2-22.8-13.6
		c-3.7-1.6-7.3-3.5-10.6-5.8c-3.9-2.6-7.7-5.4-11.5-8.1c-4.1-2.9-8.1-5.9-12.3-8.6c-6.8-4.5-14.1-7.7-22.2-9.3
		c-3.3-0.6-6.6-1.6-9.8-2.6c-3.5-1.1-6.9-2.6-10-4.9c-4.7-3.5-7.3-8.1-7.4-14c-0.1-2.9,0.1-5.8,0.7-8.7c0.8-4.1,2.1-8.1,3.5-12.1
		c3.3-9.3,5.3-18.9,6.4-28.7c1.6-14.8,0.6-29.6-1.2-44.4c-0.4-3.5-1.2-7-2.6-10.3c-5.7-13.1-15.2-22.3-28.5-27.3
		c-4.7-1.8-9.7-2.6-14.7-2c-16.1,2.1-28.2,10.5-36.5,24.2c-2.7,4.5-4,9.5-4.3,14.7c-0.1,2.2-0.4,4.5-0.7,6.7
		c-0.9,6.9-1.9,13.7-2.7,20.6c-0.7,5.3-0.4,10.6,0.7,15.9c1.4,7.1,4.7,13.4,9.7,18.6c2.8,2.9,4.4,6.3,5,10.3
		c0.3,1.9,0.5,3.8,0.4,5.8c-0.1,1.9-0.1,2,2,2.5c1.9,0.5,2.7,1.7,2.8,3.4c0.1,1.6,0,3.2,0,4.8c0,1,0,2,0.6,2.8
		c0.2,0.3,1,0.5,1.3,0.3c0.5-0.3,1-0.8,1.4-1.3c1.2-1.6,1.7-3.5,2.3-5.3c1.7-4.7,4-6.1,8.9-5.3c1.4,0.2,2.9,0.6,4.3,0.5
		c2.9-0.1,4.9,2.6,2.6,5.2c-1.7,2-2.7,4.4-3.8,6.7c-2.8,5.7-5.7,11.2-8.3,17c-1.6,3.5-4.1,5.2-7.8,5.7c-0.8,0.1-1.6,0.2-2.4,0.3
		c-9.1,0.7-17.3,3.9-24.5,9.3c-4.4,3.3-9.3,5.8-14.5,7.6c-4,1.3-7.9,2.9-11.6,4.9c-2.1,1.2-4.2,2.2-6.7,2.5
		c-2.3,0.2-4.2,1.6-5.9,3.1c-1.2,1.1-2.3,2.2-3.3,3.5c-2.4,3.3-5.6,5.8-8.6,8.5c-4.5,4-11.8,1.2-13.1-4.7c-0.8-3.6-1.6-7.2-2.9-10.6
		c-1.4-3.9-0.9-7.6,0.3-11.4c1.1-3.5,2.2-7.1,6.1-8.8c1.4-0.6,2.6-1.9,3.8-2.9c0.2-0.2,0.4-0.6,0.3-0.8c-0.2-0.4-0.5-0.9-0.8-1
		c-1.4-0.6-2.9-0.4-4.2,0.4c-1.1,0.7-2.1,1.5-3.1,2.4c-12.3,10.6-25.8,19.4-40.4,26.4c-4.8,2.3-9.6,4.5-14.4,6.8
		c-2.2,1-4.4,2.1-6.5,3.1c-1.7,0.8-3.5,1-5-0.3c-3-2.7-6.4-4.9-8.7-8.3c-9.3-13.8-18.2-27.8-24.8-43.1c-2.8-6.5-6.1-12.8-9.9-18.8
		c-9.6-15.4-21.7-28.4-37.1-38.2c-3.8-2.4-7.5-5-10.9-7.9c-7.6-6.3-16.1-11.3-25.5-14.5c-8.7-3-17.3-6.3-25.9-9.5
		c-3.9-1.5-7.7-3.2-11.6-4.9c-1.2-0.5-2.7-1-3-2.3c-0.5-2.7-2.2-3.5-4.5-4.1c-1-0.3-1.7-1.4-2.5-2.2c-1.3-1.2-2.9-2.1-4.6-2.6
		c-1.6-0.5-2.9,0-2.9,1.5c-0.1,4.2-2.3,7.1-5.1,9.9c-0.6,0.6-0.9,1.4-1.4,2c-1.1,1.2-2.1,2.5-3.3,3.5c-4.6,3.9-9.5,7.2-14.9,9.8
		c-1.7,0.8-3.6,1.5-5.4,2c-1.5,0.3-3.5,1.1-4.3-0.6c-0.6-1.1,1.3-2,2.1-2.9c1.9-1.9,3.2-4.3,5.6-5.7c-0.8-0.6-1.7-0.8-2.7-0.3
		c-1.6,0.7-3.2,1.6-4.8,2.2c-1.5,0.6-3,1.1-4.6,1.4c-2.1,0.4-3.1-0.5-3.7-2.7c-0.5-1.8-1-2.3-2.5-1.9c-1.2,0.3-2.5,0.7-3.7,1.2
		c-4.9,1.9-5.1,1.8-8.6-2.1c-0.5-0.6-1-1.2-1.5-1.9c-0.7-1-0.5-2.1,0.3-3.1c0.7-0.8,1.5-1.3,2.5-1.2c1.6,0.1,3.2,0.2,4.8,0.6
		c5,1.3,8.8-0.7,12.3-3.9c1.3-1.2,1.8-2.7,1.3-3.4c-0.7-0.9-1.7-0.6-2.7-0.7c-0.3,0-0.6-0.1-1-0.1c-0.7-0.1-1.1-0.6-1.2-1.3
		c-0.1-0.7,0.3-1.2,0.8-1.6c1.2-0.9,2.7-1,4.2-1.1c4.4-0.2,8.7,0,13,0.8c5.3,1,4.6,0.6,4.5-4.2c0-1-0.1-1.9-0.3-2.9
		c-0.1-0.5-0.7-1.2-1.2-0.1c-0.4,0.9-1.2,1.1-2,1c-3.2-0.3-6.4,0-9.6,0.6c-0.5,0.1-1,0.1-1.4,0c-1.2,0-1.7-0.7-1.8-1.8
		c0-0.5,0-1,0-1.4c0-1-0.4-1.5-1.4-1.6c-1.1-0.1-2.3,0-3.4-0.2c-2.6-0.4-5.1-1.1-7-3c-2-2.1-4.4-3.7-6.6-5.7
		c-1.4-1.3-2.8-2.6-3.8-4.4c-0.4-0.7-0.6-1.5-1.8-1.5c-1,0.8-2.1,1.7-3.2,2.7c-2.4,1.9-5,2.1-7.7,0.9c-1.3-0.6-2.6-1.3-3.7-2.3
		c-0.8-0.7-1.4-2.4-2.5-1.9c-1.3,0.7-0.3,2.2-0.1,3.4c0.2,1.3,0.6,2.5,1,3.7c2.6,6.3,3.2,12.8,1.7,19.4c-0.6,2.6-0.1,4.7,1.4,6.8
		c1.2,1.7,2.2,3.6,2.6,5.7c0.2,0.8,0.3,1.6,0.3,2.4c0,1.3-1.2,1.9-2.4,1.5c-2.4-0.9-4-2.7-5.5-4.6c-1-1.2-1.5-2.9-3-3.9
		c-0.6,0.2-1.2,0.4-1.7,0.7c-7.1,3.9-14.4,7.2-21.8,10.5c-6.2,2.8-12.4,5.5-18.4,8.6c-16,8.4-32.3,16.2-48.7,23.6
		c-3.2,1.4-5.4,3.4-6.7,6.5c-0.6,1.3-1.3,2.6-1.7,4c-0.6,2.1-1.6,3.8-2.9,5.5c-5.6,7.1-10,15-13.6,23.3c-2.6,6.1-5.2,12.2-7.8,18.3
		c-0.8,2-2,3.6-3.8,4.9c-5.8,4.1-10.4,9.2-13.2,15.7c-1.2,2.6-3.1,4.6-5.7,5.7c-4.3,1.8-8.4,4-11.8,7.4c-1.2,1.2-2.8,1.4-4.5,1
		c-4.5-1.3-9-2.4-13.5-3.9c-12-4.2-24-8.6-36-12.8c-3.5-1.2-6.1-2.8-6.4-6.8c-4.3-12.2-12.1-21.2-24.1-26.3c-6.3-2.7-13-3.1-19.7-4
		c0.1,0.6,0.1,1,0.3,1.2c2.6,3.7,4.6,7.7,6.3,11.9c1.5,3.7,4,6.6,7.1,9c1.9,1.5,3.8,3,5.7,4.5c0.8,0.7,1.6,1.1,2.6,0.5
		c1.5-0.9,2.2-0.3,2.8,1.3c0.4,1,1.4,1.7,2.1,2.6c4.3,5.3,7.2,11.1,7.5,18c0.1,2.1,0,4.2-1.2,6.1c-1.6,2.7-2.3,5.6-2.2,8.8
		c0,2.6-1.2,4.6-3,6.4c-1.7,1.7-3,1.8-4.5,0c-3.2-3.7-7.2-6.4-11.4-8.9c-2.7-1.7-5.6-3.3-7.8-5.7c-0.6-0.7-1.5-1.2-2.4-1.5
		c-1-0.3-1.7-0.8-2.4-1.5c-3.2-3.2-7.2-4.9-11.3-6.2c-3.8-1.3-7.7-2.5-11.5-3.7c-0.9-0.3-1.9-0.6-2.8-0.5c-4.3,0.4-7.8-1.5-11.1-4
		c-1.9-1.5-3.8-3-5.7-4.4c-1.7-1.3-3.5-2.3-5.7-2.3c-1.7,0-3.1-0.9-4.5-1.7c-2.1-1.3-4.4-1.9-6.9-1.9c-0.6,0-1.3,0-1.9,0
		c-4.8,0.3-8-2-10-6.2c-0.7-1.5-1.4-2.9-2.3-4.3c-2.6-3.8-3.3-7.9-3.2-12.4c0.1-4.9,1.2-9.9-1.4-14.7c-1-1.9,0.7-4.6,3.7-4.2
		c3.2,0.4,6,1.3,6.8,5c0.3,1.4,1.2,2.7,1.9,3.9c0.6,1,1.3,1.9,2,2.7c1.7,1.8,3.8,2.2,6.2,2.1c2.1-0.1,3.2-1.3,4-3
		c0.1-0.3,0.3-0.6,0.5-0.8c1.8-2.1,4.4-2.1,6.2,0c0.7,0.9,1.3,1.9,2,2.7c1.5,1.8,3.5,2.3,5.7,1.6c2.2-0.7,4.2-1.7,6.1-2.9
		c1.8-1.2,2-2.2,1.2-4.1c-1.3-3.1-3.3-5.5-6.2-7.2c-5.2-3.2-9-7.8-13-12.2c-2.2-2.4-1.8-6.6-0.3-8.5c1.8-2.4,4.2-2.8,7.8-1.4
		c0.6,0.2,1.2,0.5,1.7,0.8c3.6,1.8,6.9,4.1,9.7,7.1c5.3,5.7,11.7,10.1,17.9,14.8c1,0.8,1.9,0.5,2.1-0.7c1.2-5.3,4-9.8,6.9-14.3
		c1.5-2.3,3.1-4.5,4.6-6.8c1.3-2.1,2.4-4.2,3.5-6.4c2.2-4.7,2.6-9.6,0.6-14.6c-1.5-3.9-2.5-8-3.1-12.2c-0.9-5.9-1.4-11.9-1.6-17.8
		c-0.2-5.4-1.6-10.5-4.2-15.2c-6.3-11.1-15.5-18.9-27.4-23.4c-4.6-1.7-9.3-2.6-14.2-1.9c-14.8,2-26.1,9.5-34.5,21.8
		c-2.7,3.9-4.1,8.4-4.7,13.1c-0.5,3.7-1.1,7.3-1.6,11c-1.2,9.1-2.4,18.2-2.5,27.4c-0.1,12.1,1.4,23.9,6.3,35
		c4.8,11,5.2,22.5,4.4,34.2c-0.1,1.9-0.7,3.8-1.5,5.6c-1.2,2.8-3.2,4.8-6.3,5.5c-0.8,0.2-1.6,0.4-2.3,0.6
		c-6.4,1.3-12.3,3.7-18.1,6.7c-4.6,2.4-9,5.1-13.2,8c-4.9,3.4-9.8,6.8-14.7,10.2c-6.5,4.5-13.3,8.6-20.6,11.6
		c-3.8,1.6-7.5,2.9-11.7,2.5c-0.5,0-1,0-1.5,0c-3.7,0.1-6.4,1.7-8.1,5.1c-3.3,6.5-8.3,11.5-14.2,15.6c-2.4,1.6-4.9,3.2-7.4,4.6
		c-3.9,2.2-7.9,4.3-11.9,6.5c-3.7,2-7.3,4.1-10.7,6.6c-2.9,2.1-5.5,4.5-7.6,7.4c-3.1,4.4-4.5,9.2-3.2,14.6c2.2,8.8,6.5,16.5,12.7,23
		c0.1,0.1,0.2,0.2,0.3,0.3c3.2,2.9,7,4.5,11.4,4.5c2.9,0,5.8-0.3,8.6-1c3.7-1,7.4-2.4,10.9-3.9c6.4-2.7,12.8-5.3,19.5-7.1
		c2.2-0.6,4.4-1.2,6.6-1.3c7.2-0.5,12.2,2.8,14.5,8.9c1,2.6,1.6,5.2,1.8,8c0.8,13.4,0.5,26.8-0.5,40.1c-1.1,13.7-2.4,27.3-3.6,41
		c-1.2,12.9-1,25.8,0.5,38.6c2.2,18.6,3.7,37.2,4.8,55.9c0.4,6.4,0.8,12.9,1.1,19.3c0.8,15.6,1.7,31.2,2.3,46.9
		c0.6,16.4,0.2,32.9,1.3,49.3c0.8,12.2,1.9,24.5,4.6,36.4c2.7,12,5.6,23.9,8.5,35.8c5.4,22.3,10.5,44.6,13.6,67.3
		c2.3,16.8,3.4,33.7,3,50.7c-0.1,6.5,0.1,12.9,0.8,19.3c1.4,14.1,3.8,28.1,5.9,42.2c2.1,14.4,3.3,28.8,2.4,43.4
		c-0.3,4.2-0.9,8.3-1.7,12.4c-1.7,8.2-6.6,13.4-14.4,16.2c-3.7,1.3-7.4,2.2-11.2,3c-6.2,1.2-12.3,2.4-18.5,3.8
		c-5.2,1.2-10.2,3.1-14.8,5.8c-3.8,2.3-7.1,5-9.5,8.8c-3.2,5-4.3,10.4-2.8,16.2c0.9,3.8,3.2,6.2,7,7.2c1.2,0.3,2.5,0.6,3.8,0.7
		c15,1.4,30,1.4,44.9-0.3c15.7-1.8,31.3-4,47-6c10.6-1.3,21.2-2.2,31.8-2.2c2.7,0,5.5,0,8.2,0c2.9-0.1,5.8-0.7,8.4-2
		c3.8-1.9,6-4.8,5.9-9.2c-0.1-5.9,1.4-11.5,3.2-17c0.6-1.8,1.3-3.6,2-5.5c2.5-6.5,5-12.9,6.1-19.8c0.1-0.5,0.1-1.3,1.1-1.2
		c0.7,4.9,1.4,9.9,2.1,14.8c1.2,8.5,3.3,16.8,8.6,23.9c1,1.4,1.7,3.1,2.5,4.7c2.8,6.3,2.2,12.3-1.8,17.8c-1.7,2.3-3.7,4.5-5.6,6.6
		c-2.3,2.5-4.8,4.8-7.1,7.3c-3.5,3.8-6.5,8-8.5,12.9c-2.4,6-3.2,12.1-1.9,18.5c1.1,5.3,4.2,8.5,9.7,9.3c9.8,1.5,19.6,2.2,29.4,1.5
		c10.4-0.8,20.4-3.1,29.5-8.4c7.1-4.2,14-8.7,20.5-13.8c3.1-2.4,5.8-5.1,8.2-8.2c3.8-5.1,5.9-10.7,5.8-17.1
		c-0.1-2.4-0.1-4.8-0.4-7.2c-0.4-3.3,0.5-6.1,2.5-8.5c0.7-0.9,1.5-1.7,2.3-2.5c3.9-4,5.9-8.8,6.2-14.3c0.2-4,0.1-8.1-0.5-12.1
		c-1.1-7.3-2.2-14.7-3.3-22c-2.8-18.3-5.7-36.6-8.5-55c-1.5-10.4-3-20.8-4.1-31.2c-1.6-14.6-4-29-7.6-43.3
		c-3.9-15.3-8.6-30.4-13.3-45.5c-4.7-15.2-9.3-30.5-13-46.1c-3.9-16.8-5.6-34-7.8-51.1c-1.5-11.7-2.9-23.4-4.3-35.1
		c-1.2-10.1-2.4-20.2-3.4-30.3c-1.2-12.5-2.2-25.1-3.3-37.6c-1.3-15.1-2-30.3-2.5-45.4c-0.3-9.5-0.2-19-0.3-28.6
		c-0.1-10-0.8-20-2.8-29.8c-1.8-9.1-5-17.6-9.3-25.9c-9.5-18.2-12.6-37.4-9.3-57.7c2-12.2,6-23.7,11.3-34.9c2.3-5,4.9-9.8,7.3-14.7
		c6.4-13.4,11.3-27.4,15-41.8c0.9-3.4,1.6-3.6,4.6-1.8c1.1,0.7,2.1,1.5,3.1,2.3c3.8,3,7.6,6,11.5,8.9c8,6.1,16.8,10.9,25.4,16
		c3.1,1.8,6.5,3.1,10.1,2.9c5.1-0.3,10.3-0.6,15.2-2.4c3.2-1.1,6.4-2.3,9.7-2.9c4.5-0.8,8.8-1.9,13-3.7c2.9-1.2,5.8-1.8,8.9-2.2
		c4.8-0.5,9.5-1.8,13.9-4c5.5-2.8,11.2-5,17.3-6c2.4-0.4,4.2-1.5,5.2-3.8c0.5-1.2,1.3-2.2,2-3.3c3.5-5.6,7.1-11.2,11.8-15.9
		c3-2.9,6-5.7,8-9.4c0.1-0.1,0.3-0.1,0.4-0.2c0.6,0.3,0.9,0.9,1.1,1.5c0.6,2.2,1.1,4.4,1.7,6.5c3.6,13.7,7.7,27.3,10.5,41.2
		c4.1,19.9,5.4,39.9,1.8,60c-0.2,1-0.4,2,0.3,2.8c2.2,2.6,1.4,5-0.1,7.5c-1.6,2.5-2.1,5.4-2.3,8.3c-0.4,4.5-0.8,9-1.4,13.5
		c-2.4,16.9-3.1,34-4.3,51.1c-0.1,1.1,0,2.3,0.2,3.4c0.3,1.2,0.2,2.2-0.2,3.3c-0.9,2.3-0.9,4.7-1.1,7.1c-0.6,9.5-1.3,19-1.3,28.5
		c0,1.6,0.2,3.3-0.6,4.8c-0.9,1.6-0.9,3.4-1,5.2c-0.2,2.2-0.3,4.5-0.7,6.7c-1,5.7-2.2,11.4-3.1,17.1c-1.7,10.4-2.6,20.8-3.1,31.3
		c-0.3,6.4-0.8,12.9-1.3,19.3c-0.7,9.5-1.7,19-2.3,28.5c-1.1,17.1-2,34.1-2.9,51.2c-1.1,20.3-2.5,40.6-4.9,60.8
		c-1.6,13.5-3.8,26.8-6.6,40.1c-2.3,10.9-5.5,21.6-8.1,32.4c-6.6,27.5-11,55.3-13.8,83.5c-1.8,18.3-3,36.7-3.5,55
		c-0.5,15.2-0.5,30.3-0.6,45.5c-0.1,5.5-0.4,10.9-1.2,16.4c-0.8,5.3-1.3,10.6-1.8,15.9c-0.5,6,0.5,11.6,4.7,16.2
		c1.7,1.9,2.9,4.2,4,6.6c2.2,5,3,10.1,1.7,15.6c-0.9,3.6-2.2,7.1-3.8,10.4c-1.9,4.3-4,8.5-5.7,12.8c-1.6,3.9-2.5,8-2.7,12.2
		c-0.2,7.1,3,12,9.1,15.2c3.6,1.9,7.5,3,11.5,3.7c10.7,2,21.5,2.1,32.3,0.8c3.8-0.5,7.6-1.4,11.2-2.9c6.2-2.6,10.4-7,12.6-13.2
		c1.1-3.2,1.8-6.5,2.1-9.9c0.8-7.1,0.3-14.2,0-21.3c-0.1-3.9,0.1-7.7,0.8-11.6c1.2-6.8,4.8-11.9,10.8-15.3c1.5-0.9,3.2-1.6,4.8-2.2
		c2-0.8,3.1-2.1,3.9-4c1-2.4,1.4-4.9,1.6-7.5c0.2-2.4,0.3-4.8,0.5-7.2c1.6-16.7,4.1-33.3,6.8-49.8c3.8-23.6,8-47.1,9.9-70.9
		c0.9-10.9,1.6-21.9,1.1-32.9c-0.6-12.1-0.6-24.2,0.3-36.3c1.2-14.5,3.7-28.8,8.8-42.5c13.6-36.1,21.6-73.6,27.1-111.6
		c1.9-13.1,3.5-26.2,5.1-39.3c1.6-13,3-26,4.5-38.9c1.4-12,2.8-24,4.2-36c0.2-1.9,0.5-3.8,0.8-5.7c0.1-0.5,0-1.5,0.9-1.3
		c0.7,0.1,0.7,0.9,0.8,1.5c0.1,0.3,0.1,0.6,0.1,1c2,11.4,3.8,22.9,6,34.3c5.1,26,9.1,52.1,13.1,78.2c3.1,20.2,6.4,40.4,10.8,60.5
		c5.4,24.5,12.3,48.4,22.3,71.4c1.6,3.8,2.4,7.7,2.7,11.7c0.6,8.7,1.2,17.4,1.9,26.1c1.2,15.9,3.1,31.8,5.3,47.6
		c2.6,19.3,5.8,38.6,9.2,57.8c5.2,29.1,10.9,58,16.6,86.9c0.4,1.9,1,3.7,1.7,5.5c1.3,3.4,3.9,5.4,7.5,6.1c1.1,0.2,2.2,0.3,3.4,0.5
		c5.3,1,8.7,4.1,9.7,9.5c0.4,2.2,0.7,4.5,0.9,6.7c0.4,4.3,0.6,8.7,1.1,13c0.8,6.9,2.3,13.7,4.8,20.2c5.6,14.4,16,23.1,31.1,26.1
		c10.7,2.2,21.5,2.1,32.3,0.6c4.8-0.6,9.5-2.1,13.6-4.8c5.5-3.7,8.4-8.8,8.3-15.5c0-4-1.1-7.6-2.6-11.2c-2.2-5.1-5.3-9.6-8.8-13.9
		c-2.4-3-4.9-6-7.2-9.1c-1.9-2.4-3.5-5-4.8-7.8c-2.8-6-2.6-11.9,0.2-17.7c1.1-2.3,2.4-4.6,4.2-6.5c2.3-2.4,2.5-5,2.2-8
		c-0.9-7.2-1.7-14.4-2.5-21.6c-1.4-12.5-2.9-25-4.3-37.5c-1.8-16-3.7-32-5.3-48.1c-1.4-13.5-2.6-27-3.3-40.5
		c-0.5-8.9-1.6-17.7-3.2-26.4c-2.5-13.2-5.9-26.1-9.6-39c-4.4-15.2-9-30.3-12.6-45.7c-2.4-10.4-4.3-20.9-5.1-31.5
		c-0.6-7.4-0.8-14.8-1.2-22.2c-0.4-7.1-0.8-14.2-1.3-21.2c-0.8-10.3-1.6-20.6-2.5-30.9c-1-11.1-2.1-22.2-3.3-33.2
		c-1.4-12.3-2.9-24.7-4.5-37c-1.3-10.6-2.9-21.1-4.3-31.6c-0.3-2.6-1.1-5-2.3-7.3c-2.2-4.5-4.2-9.1-6.1-13.7
		c-9-22.5-13.5-46-16.3-70c-1.2-9.8-1.9-19.6-2.4-29.4c-0.6-11.9-0.6-23.9,0-35.8c0.5-8.9,1.2-17.7,2.3-26.5
		c0.3-2.3,0.3-4.5-0.2-6.7c-1.2-5.2-1.7-10.5-1.9-15.8c-0.2-7.9-0.4-15.8-0.8-23.7c-0.5-10.1,0.4-20,2.5-29.8
		c2.6-12.6,5.4-25.2,8.2-37.8c0.3-1.2,0.7-2.5,1.3-3.6c1.2-2.3,3.2-3,5.7-2.2c1.6,0.5,3,1.3,4.1,2.5c1.7,1.7,3.4,3.4,4.9,5.3
		c6.1,8.1,12.1,16.3,18.2,24.5c1.6,2.1,2.8,4.3,2.6,7.1c-0.1,0.6,0,1.4,0.2,1.9c1.9,3.7,3.6,7.6,6,11c3,4.2,5.7,8.6,7.3,13.5
		c0.4,1.3,1.2,2.3,2.3,2.9c1.4,0.8,2.7,1.8,4.2,2.4c2.4,1,4.6,2.3,6.7,3.9c1,0.8,2.2,1.4,3.3,2c4.6,2.5,9.7,3.5,14.9,3.7
		c3.4,0.1,6.8-0.1,10.1,1c4.4,1.5,8.9,0.8,13.4,0.8c0.8,0,1.5-0.5,2.3-0.7c3.1-0.9,6.1-2.1,9.2-2.8c4.5-0.9,8.1-3.2,11-6.6
		c1.7-1.9,3.2-4,4.6-6.2c1.3-2,2.8-3.5,4.8-4.7c5.2-3.3,10.3-6.6,15.4-10c2.1-1.4,4.2-2.2,6.7-2.4c6.4-0.5,12.4-2.2,17.7-5.8
		c1.4-1,3.2-1.7,4.9-2.1c2.9-0.6,5.4-1.7,7.5-4.2c0.5,1.3,0.9,2.1,1.2,3.1c4.8,14.4,10.3,28.5,16.4,42.4c2.1,4.7,3.9,9.6,5.6,14.4
		c4.4,12.4,7.3,25.1,8.1,38.2c1.1,18.4-2.2,35.9-10,52.7c-2.2,4.7-4.2,9.4-6,14.3c-2.1,5.6-3.3,11.5-3.3,17.5
		c0.2,16.9-0.4,33.9-1.8,50.8c-1.1,13.2-2.1,26.4-3.3,39.5c-1.7,18-3.7,35.9-5.3,53.9c-1.6,17.7-2.9,35.4-5,53
		c-1.4,11.5-3.2,23-5.4,34.4c-2.5,12.8-6.2,25.4-9.7,37.9c-9.2,33.3-18.3,66.5-25.1,100.4c-3,14.9-5.6,29.8-7.4,44.8
		c-1.4,11.9-3.1,23.6-5.3,35.4c-1.7,9.3-3.1,18.8-3,28.3c0.1,12.9,3.4,24.9,10.8,35.5c1.5,2.1,1.9,4.2,1.8,6.8
		c-0.4,8.3,0.4,16.4,2.7,24.4c3.9,13.4,12.5,22.3,25.9,26.4c1.1,0.3,2.2,0.7,3.3,0.9c9.6,2.3,19.4,3,29.3,2.6
		c4.2-0.2,8.3-0.9,12.2-2.7c7-3.2,10.7-8.5,10.7-16.3c0-2.3-0.2-4.5-0.7-6.7c-1.3-5.7-3.7-11-6.7-16c-2.7-4.6-5.4-9.2-8-13.8
		c-0.7-1.3-1.3-2.6-1.9-3.9c-1-2.5-0.6-4.6,1.8-6.3c5-3.8,7.7-9,9-15c0.3-1.4,0.5-2.8,0.8-4.3c1-6.4,1.4-12.8,3-19.1
		c8.1-31.1,13.7-62.7,17.9-94.5c2.3-16.8,4-33.6,6-50.4c1.5-12.5,4.1-24.8,8.8-36.6c0.8-1.9,1.2-4,2.8-5.5c1.9,1.8,0.9,4.2,1.3,6.2
		c0.2,1.1-0.1,2.2-0.2,3.4c-0.3,2.6-0.8,5.1-1.1,7.7c-2.3,16.9-5.2,33.8-8.3,50.6c-3.2,17.1-6.4,34.2-8.4,51.6
		c-2,17-3.1,34-1.8,51.2c1.1,15.5,3.9,30.7,8.8,45.5c1,2.9,2.1,5.8,3.5,8.5c3,5.9,7.7,9.4,14.4,10.1c5.3,0.5,10.6,1,15.9,1.5
		c17,1.6,33.9,4,50.9,6.5c7.5,1.1,15,2.2,22.5,3.3c11,1.6,21.9,0.6,32.8-0.2c2.1-0.2,4.2-0.6,6.2-1.2c7.7-2.3,10.2-7.2,7.5-14.9
		c-1.8-4.9-4.5-9.3-8.1-13.1c-5.2-5.5-11.7-8.5-18.9-10.2c-4.8-1.2-9.8-2.1-14.7-3c-5.1-1-10.1-2.3-14.6-4.8
		c-8.2-4.4-13.1-11.2-14.9-20.3c-0.8-3.8-0.8-7.7-1.2-11.5c-1-10-0.4-19.9,1.7-29.8c5.2-24.5,8.1-49.3,9.2-74.3
		c0.5-11.6,0.5-23.2,0.6-34.8c0-4.8-0.3-9.7-0.3-14.5c0-7.1,1-14.1,3.2-20.9c6.8-21.6,11.6-43.6,15.1-65.9c2-12.9,3.7-25.9,5-38.9
		c1.5-13.8,2.6-27.6,3.6-41.4c0.7-10.8,1.4-21.6,2.2-32.3c1.2-16.1,2.3-32.2,3.6-48.3c0.7-8.4,1.6-16.7,2.5-25
		c1-9.6,2-19.3,2.2-28.9c0.3-13.4,0.3-26.8-0.6-40.1c-0.9-12.2-1.6-24.5-2.5-36.7c-1-13.8-2.3-27.6-3.3-41.5
		c-0.2-2.7-0.2-5.5-0.1-8.2c0.1-2.9,0.7-5.8,1.7-8.5c2.1-5.4,6-8.2,11.8-8.4c4.5-0.1,8.7,0.9,12.7,2.6c4.3,1.8,8.5,3.8,12.7,5.9
		c4.2,2,8.4,4.1,12.8,5.7c4.6,1.6,9.3,2.7,14.2,2.7c5.3-0.1,9.8-1.9,13.4-5.7c5.3-5.8,9.3-12.4,11.6-19.9
		C1329.7,1068.2,1326.8,1060.5,1319.2,1055.8z M722.3,848.1c-0.9-0.9-0.4-2.1,0.3-3.1c0.3-0.4,0.5-0.8,0.8-1.2
		c0.6-0.8,1.2-1.5,2.4-1.1c1.3,0.5,2.1,1.3,2.4,3c-0.2,0.4-0.3,1-0.7,1.4c-0.5,0.5-1.3,1-2,1.3C724.4,848.8,723.1,849,722.3,848.1z"
		/>
	<path fill="#010000" d="M704.7,810.8c2.4,0.9,4.1,2.4,5.6,4.4c0.7,0.9,1.3,1.8,1.9,2.8c0.6,0.9,1.4,1.3,2.4,1.3
		c1.3-0.1,2.6-0.2,3.8-0.3c2.4-0.2,4.8-0.5,6.4-0.7c1.3,0.1,1.8,0,2.3,0.2c3.1,0.9,5-0.6,6.4-3c1.9-3.4,3.8-6.8,5.6-10.2
		c0.8-1.4,0.6-2-0.7-2.8c-3.4-2.2-7-4.1-10.7-5.7c-0.6-0.3-1.2-0.5-1.8-0.5c-3.9-0.2-7.6-1.5-11.3-2.4c-3.2-0.7-6.3-1.3-9.6-0.7
		c-0.8,0.1-1.6,0.1-2.4,0c-0.8-0.1-1.4-1-2.2-0.5c-1,0.6-0.7,1.7-0.8,2.6c-0.2,1.8-0.3,3.5-0.6,5.3
		C698.3,805.6,700,809.1,704.7,810.8z"/>
	<path fill="#010000" d="M748.6,811.6c0.5,0.4,1.1,0.7,1.7,1c2.2,0.9,4.5,1.8,6.7,2.7c0.4,0.2,0.9,0.2,1.6,0.4
		c0.5-0.2,1.1-0.3,1.7-0.6c1-0.5,2-1.1,3-1.6c2-0.9,4.3-1.5,6.1-2.8c3.8-2.6,7.5-5.5,11.1-8.4c0.8-0.7,1.5-1.7,2-2.7
		c0.5-0.7,0.3-1.6-0.3-2.2c-1.5-1.5-3.3-2.5-5.2-3.4c-1.6-0.7-2.1,1.2-3.4,1.3c-0.5,0-0.9,0.2-1.4,0.3c-5,1.3-10,2.4-15.2,2.4
		c-3,0-5.7,0.8-8.2,2.5C743.8,803.7,743.8,808.3,748.6,811.6z"/>
	<path fill="#010000" d="M1077.5,956.1c1.5,0.7,3.1,0.9,4.4-0.4c0.5-0.4,0.9-0.9,1.4-1.3c2.4-1.8,3.9-1.9,5.8,0.5
		c2.2,2.9,5.1,3.7,8.5,3.5c2.4-0.1,2.5-0.2,3-2.8c0.3-1.5,0.1-2-1-2.1c-2.6-0.4-5-1.3-7.4-2.1c-2.3-0.8-4.6-1.3-6.6-1.1
		c-1.6,0.1-2.7,0.1-3.8,0.2c-1.9,0-3.4,1-4.7,2.1C1075.8,953.6,1076,955.4,1077.5,956.1z"/>
	<path fill="#010000" d="M754.9,833.7c-1.3,1-0.7,2.4-0.5,3.6c0.3,2.1,0.5,4.2,3.7,4c0.6-0.1,1.3,1.3,2,1.9c0.9,0.8,1.5,2,2.9,2.3
		c-1-4.1-2.7-8-4.5-10.1C757.1,833.7,755.7,833.1,754.9,833.7z"/>
	<path fill="#010000" d="M785.5,782.2c0.1-1.1,0.1-1.1,1.2-2.8c0.2,0.9,0.3,1.6,0.6,2.4c0.1,0.3,0.4,0.6,0.6,0.6
		c0.2,0,0.6-0.3,0.6-0.5c0.5-3-0.5-7.8-2.4-11.2c-2,4.9-1.3,9.7-1.1,14.6C785.2,784.2,785.3,783.2,785.5,782.2z"/>
	<path fill="#010000" d="M793.6,764.1c0-3.1-0.6-6-1.7-9.8c-1.1,4.4-2,7.9-3,12c1.6-0.3,2.5-0.5,3.5-0.6
		C793.3,765.7,793.6,765,793.6,764.1z"/>
	<path fill="#010000" d="M696.5,732.1c0.4,0.1,0.9-0.2,1.3-0.4c1-0.5,1-1.6,1-2.7c-0.1-0.3-0.1-0.9-0.5-1.1c-0.9-0.5-1,0.4-1.3,0.9
		c-0.4,0.7-0.6,1.5-0.9,2.2C696,731.4,696,732,696.5,732.1z"/>
	<path fill="#010000" d="M787,796.1c-0.1-0.1-0.3,0-0.4,0.1c-1.1,1-1.8,2.3-1.2,3.8c0.1,0.3,0.4,0.5,0.6,0.7
		c0.2-0.1,0.6-0.2,0.7-0.4c0.5-1.2,1-2.4,0.9-3.7C787.5,796.5,787.2,796.3,787,796.1z"/>
	<path fill="#010000" d="M731.1,831.2c-0.6,0.2-1.1,0.7-1.3,1.4c0.4,0.2,0.8,0.5,1.2,0.7c0.6,0.4,1.1,0.6,1.6-0.1
		c0.3-0.5,0.7-1.2,0.3-1.8C732.4,830.9,731.7,831,731.1,831.2z"/>
	<path fill="#010000" d="M788.1,789.5c0.1-0.1,0.2-0.2,0.2-0.4c-0.1-0.1-0.1-0.2-0.2-0.4c-0.1,0.1-0.2,0.2-0.2,0.3
		C787.9,789.2,788,789.4,788.1,789.5z"/>
	<path fill="#010000" d="M758.3,880L758.3,880L758.3,880L758.3,880C758.4,879.9,758.4,879.9,758.3,880L758.3,880c0-0.1,0-0.1,0-0.1
		C758.3,879.9,758.3,880,758.3,880C758.3,880,758.3,880,758.3,880C758.3,880,758.3,880,758.3,880L758.3,880z"/>
	<path fill="#010000" d="M758.3,879.9c0-0.1,0-0.1,0-0.2C758.1,879.9,758.1,879.9,758.3,879.9z"/>
</g>
</svg>
