<?xml version="1.0" encoding="utf-8"?>
<!-- Generator: Adobe Illustrator 18.0.0, SVG Export Plug-In . SVG Version: 6.00 Build 0)  -->
<!DOCTYPE svg PUBLIC "-//W3C//DTD SVG 1.1//EN" "http://www.w3.org/Graphics/SVG/1.1/DTD/svg11.dtd">
<svg version="1.1" id="Layer_1" xmlns="http://www.w3.org/2000/svg" xmlns:xlink="http://www.w3.org/1999/xlink" x="0px" y="0px"
	 viewBox="0 0 1536 2048" enable-background="new 0 0 1536 2048" xml:space="preserve">
<g>
	<path fill="#010000" d="M1201.1,1108.8c-6.6-4.1-12.7-8.8-18.6-13.8c-4.2-3.5-8.4-7-12.7-10.3c-5.5-4.3-11.4-8-17.9-10.7
		c-2.9-1.2-5.7-2.8-8.3-4.6c-3-2.1-6-4.2-9-6.3c-3.2-2.3-6.4-4.6-9.6-6.8c-5.3-3.5-11.1-6.1-17.4-7.3c-2.6-0.5-5.2-1.3-7.7-2
		c-2.8-0.9-5.5-2.1-7.8-3.8c-3.7-2.7-5.7-6.4-5.8-11c-0.1-2.3,0.1-4.5,0.6-6.8c0.7-3.2,1.7-6.4,2.8-9.5c2.6-7.3,4.2-14.9,5-22.6
		c1.2-11.7,0.5-23.3-0.9-34.9c-0.3-2.8-0.9-5.5-2.1-8.1c-4.5-10.3-11.9-17.5-22.4-21.5c-3.7-1.4-7.6-2.1-11.6-1.5
		c-12.7,1.6-22.1,8.2-28.7,19c-2.1,3.5-3.2,7.4-3.4,11.6c-0.1,1.8-0.3,3.5-0.6,5.3c-0.7,5.4-1.5,10.8-2.1,16.2
		c-0.5,4.2-0.3,8.4,0.5,12.5c1.1,5.6,3.7,10.5,7.6,14.6c2.2,2.3,3.4,5,3.9,8.1c0.2,1.5,0.4,3,0.3,4.5c-0.1,1.5-0.1,1.6,1.6,2
		c1.5,0.4,2.1,1.3,2.2,2.7c0.1,1.3,0,2.5,0,3.8c0,0.8,0,1.6,0.5,2.2c0.2,0.2,0.7,0.4,1,0.3c0.4-0.2,0.8-0.6,1.1-1
		c0.9-1.2,1.3-2.7,1.8-4.1c1.3-3.7,3.2-4.8,7-4.2c1.1,0.2,2.3,0.4,3.4,0.4c2.3-0.1,3.8,2.1,2.1,4.1c-1.3,1.6-2.1,3.4-3,5.3
		c-2.2,4.4-4.4,8.8-6.5,13.3c-1.2,2.7-3.2,4.1-6.1,4.5c-0.6,0.1-1.3,0.2-1.9,0.2c-7.2,0.5-13.6,3.1-19.3,7.3
		c-3.5,2.6-7.3,4.6-11.4,6c-3.1,1.1-6.2,2.3-9.1,3.9c-1.7,0.9-3.3,1.7-5.3,1.9c-1.8,0.2-3.3,1.2-4.6,2.4c-0.9,0.8-1.8,1.8-2.6,2.8
		c-1.9,2.6-4.4,4.6-6.8,6.6c-3.6,3.1-9.2,1-10.3-3.7c-0.6-2.8-1.3-5.6-2.2-8.4c-1.1-3.1-0.7-6,0.2-8.9c0.9-2.8,1.8-5.6,4.8-6.9
		c1.1-0.5,2-1.5,3-2.3c0.2-0.1,0.3-0.5,0.2-0.7c-0.1-0.3-0.4-0.7-0.6-0.8c-1.1-0.5-2.3-0.3-3.3,0.3c-0.9,0.5-1.6,1.2-2.4,1.9
		c-9.7,8.3-20.3,15.2-31.7,20.7c-3.8,1.8-7.6,3.6-11.4,5.3c-1.7,0.8-3.4,1.6-5.1,2.5c-1.4,0.7-2.8,0.8-3.9-0.3
		c-2.4-2.1-5.1-3.9-6.9-6.5c-7.3-10.8-14.3-21.8-19.5-33.9c-2.2-5.1-4.8-10.1-7.8-14.8c-7.5-12.1-17.1-22.3-29.2-30
		c-3-1.9-5.9-4-8.6-6.2c-6-5-12.6-8.8-20-11.4c-6.8-2.3-13.6-4.9-20.3-7.5c-3.1-1.2-6.1-2.5-9.1-3.8c-0.9-0.4-2.1-0.8-2.3-1.8
		c-0.4-2.1-1.7-2.8-3.5-3.2c-0.8-0.2-1.4-1.1-2-1.7c-1-1-2.3-1.6-3.6-2.1c-1.2-0.4-2.3,0-2.3,1.2c0,3.3-1.8,5.6-4,7.8
		c-0.4,0.4-0.7,1.1-1.1,1.5c-0.8,1-1.6,2-2.6,2.8c-3.6,3-7.5,5.7-11.7,7.7c-1.4,0.7-2.8,1.2-4.3,1.6c-1.1,0.3-2.7,0.9-3.4-0.4
		c-0.4-0.9,1-1.6,1.7-2.3c1.5-1.5,2.5-3.4,4.4-4.5c-0.6-0.5-1.3-0.6-2.1-0.3c-1.3,0.6-2.5,1.2-3.8,1.7c-1.2,0.5-2.4,0.9-3.6,1.1
		c-1.7,0.3-2.4-0.4-2.9-2.2c-0.4-1.4-0.8-1.8-1.9-1.5c-1,0.2-1.9,0.6-2.9,0.9c-3.8,1.5-4,1.4-6.8-1.7c-0.4-0.5-0.8-1-1.2-1.5
		c-0.5-0.8-0.4-1.6,0.2-2.4c0.5-0.7,1.2-1,2-0.9c1.3,0.1,2.5,0.2,3.8,0.5c3.9,1,6.9-0.6,9.7-3.1c1-1,1.4-2.1,1-2.6
		c-0.6-0.7-1.4-0.5-2.1-0.6c-0.3,0-0.5,0-0.8-0.1c-0.6-0.1-0.9-0.5-1-1c-0.1-0.5,0.2-1,0.7-1.3c1-0.7,2.1-0.8,3.3-0.8
		c3.4-0.2,6.8,0,10.2,0.6c4.2,0.8,3.6,0.4,3.6-3.3c0-0.8,0-1.5-0.2-2.2c-0.1-0.4-0.6-0.9-1-0.1c-0.3,0.7-0.9,0.8-1.6,0.8
		c-2.5-0.2-5.1,0-7.6,0.5c-0.4,0.1-0.8,0-1.1,0c-0.9,0-1.4-0.5-1.4-1.4c0-0.4,0-0.8,0-1.1c0-0.8-0.4-1.2-1.1-1.2
		c-0.9-0.1-1.8,0-2.7-0.2c-2-0.3-4-0.9-5.5-2.4c-1.6-1.6-3.5-2.9-5.2-4.5c-1.1-1-2.2-2.1-3-3.4c-0.3-0.5-0.5-1.2-1.4-1.2
		c-0.8,0.6-1.6,1.4-2.5,2.1c-1.9,1.5-3.9,1.6-6.1,0.7c-1.1-0.4-2-1-2.9-1.8c-0.6-0.6-1.1-1.9-1.9-1.5c-1,0.5-0.3,1.8-0.1,2.7
		c0.2,1,0.4,2,0.8,2.9c2,5,2.5,10.1,1.3,15.3c-0.5,2-0.1,3.7,1.1,5.4c0.9,1.3,1.7,2.8,2.1,4.5c0.1,0.6,0.2,1.2,0.2,1.9
		c0,1-0.9,1.5-1.9,1.2c-1.9-0.7-3.1-2.1-4.3-3.6c-0.8-1-1.2-2.3-2.4-3c-0.4,0.2-0.9,0.3-1.4,0.6c-5.6,3-11.3,5.7-17.1,8.3
		c-4.8,2.2-9.7,4.3-14.4,6.8c-12.6,6.6-25.3,12.8-38.3,18.6c-2.5,1.1-4.2,2.7-5.3,5.1c-0.5,1-1,2.1-1.3,3.2c-0.5,1.6-1.3,3-2.3,4.3
		c-4.4,5.6-7.9,11.8-10.7,18.3c-2,4.8-4.1,9.5-6.1,14.3c-0.6,1.6-1.5,2.8-3,3.8c-4.5,3.2-8.1,7.2-10.4,12.3
		c-0.9,2.1-2.4,3.6-4.5,4.4c-3.4,1.4-6.6,3.2-9.3,5.8c-1,1-2.2,1.1-3.5,0.8c-3.5-1-7.1-1.9-10.6-3.1c-9.5-3.3-18.8-6.8-28.3-10
		c-2.7-0.9-4.8-2.2-5-5.3c-3.4-9.6-9.5-16.6-18.9-20.7c-4.9-2.1-10.2-2.4-15.5-3.1c0.1,0.5,0.1,0.8,0.2,0.9c2,2.9,3.6,6.1,5,9.4
		c1.1,2.9,3.2,5.2,5.6,7.1c1.5,1.2,3,2.3,4.4,3.6c0.6,0.5,1.2,0.8,2,0.4c1.2-0.7,1.7-0.2,2.2,1c0.3,0.8,1.1,1.3,1.7,2
		c3.3,4.1,5.6,8.7,5.9,14.1c0.1,1.7,0,3.3-0.9,4.8c-1.3,2.1-1.8,4.4-1.8,6.9c0,2-0.9,3.6-2.3,5c-1.3,1.3-2.3,1.4-3.5,0
		c-2.5-2.9-5.7-5-8.9-7c-2.1-1.3-4.4-2.6-6.1-4.5c-0.5-0.5-1.2-0.9-1.9-1.2c-0.8-0.3-1.4-0.6-1.9-1.2c-2.5-2.5-5.6-3.8-8.9-4.9
		c-3-1-6-1.9-9-2.9c-0.7-0.2-1.5-0.4-2.2-0.4c-3.4,0.3-6.1-1.2-8.7-3.2c-1.5-1.2-3-2.4-4.5-3.5c-1.3-1-2.8-1.8-4.5-1.8
		c-1.3,0-2.4-0.7-3.5-1.3c-1.7-1-3.5-1.5-5.4-1.5c-0.5,0-1,0-1.5,0c-3.8,0.2-6.3-1.5-7.8-4.9c-0.5-1.1-1.1-2.3-1.8-3.3
		c-2-3-2.6-6.2-2.5-9.7c0.1-3.8,0.9-7.8-1.1-11.5c-0.8-1.5,0.6-3.6,2.9-3.3c2.5,0.3,4.7,1,5.4,4c0.3,1.1,0.9,2.1,1.5,3.1
		c0.4,0.8,1,1.5,1.6,2.1c1.3,1.4,3,1.7,4.9,1.7c1.6-0.1,2.5-1,3.1-2.4c0.1-0.2,0.3-0.4,0.4-0.6c1.4-1.6,3.5-1.6,4.9,0
		c0.6,0.7,1,1.5,1.6,2.1c1.2,1.4,2.7,1.8,4.5,1.3c1.7-0.5,3.3-1.3,4.8-2.3c1.4-0.9,1.6-1.7,1-3.2c-1-2.4-2.6-4.3-4.8-5.7
		c-4.1-2.5-7.1-6.1-10.2-9.6c-1.7-1.9-1.4-5.2-0.2-6.7c1.4-1.9,3.3-2.2,6.2-1.1c0.5,0.2,0.9,0.4,1.4,0.7c2.9,1.4,5.5,3.2,7.6,5.6
		c4.2,4.5,9.2,7.9,14.1,11.6c0.8,0.6,1.5,0.4,1.7-0.6c0.9-4.2,3.1-7.7,5.4-11.2c1.2-1.8,2.5-3.5,3.6-5.4c1-1.6,1.9-3.3,2.7-5
		c1.8-3.7,2-7.5,0.5-11.4c-1.2-3.1-2-6.3-2.4-9.6c-0.7-4.6-1.1-9.3-1.2-14c-0.2-4.3-1.2-8.3-3.3-12c-5-8.7-12.2-14.8-21.5-18.4
		c-3.6-1.3-7.3-2-11.2-1.5c-11.6,1.6-20.5,7.5-27.1,17.1c-2.1,3.1-3.2,6.6-3.7,10.3c-0.4,2.9-0.9,5.8-1.3,8.6
		c-1,7.2-1.9,14.3-2,21.6c-0.1,9.5,1.1,18.7,4.9,27.5c3.8,8.7,4.1,17.7,3.5,26.9c-0.1,1.5-0.5,3-1.2,4.4c-1,2.2-2.6,3.7-5,4.3
		c-0.6,0.1-1.2,0.3-1.8,0.5c-5,1-9.7,2.9-14.2,5.3c-3.6,1.9-7,4-10.4,6.3c-3.9,2.6-7.7,5.4-11.6,8c-5.1,3.5-10.4,6.7-16.2,9.1
		c-2.9,1.2-5.9,2.3-9.2,1.9c-0.4,0-0.8,0-1.1,0c-2.9,0.1-5,1.3-6.4,4c-2.6,5.1-6.5,9-11.2,12.2c-1.9,1.3-3.8,2.5-5.8,3.6
		c-3.1,1.8-6.2,3.4-9.3,5.1c-2.9,1.6-5.7,3.2-8.4,5.2c-2.2,1.7-4.3,3.5-6,5.8c-2.5,3.5-3.6,7.3-2.5,11.5c1.7,6.9,5.1,12.9,10,18.1
		c0.1,0.1,0.2,0.2,0.3,0.3c2.5,2.3,5.5,3.6,9,3.6c2.3,0,4.5-0.2,6.8-0.8c2.9-0.8,5.8-1.9,8.6-3.1c5-2.1,10.1-4.2,15.3-5.6
		c1.7-0.5,3.5-0.9,5.2-1c5.6-0.4,9.6,2.2,11.4,7c0.8,2,1.3,4.1,1.4,6.3c0.6,10.5,0.4,21-0.4,31.5c-0.8,10.7-1.9,21.5-2.8,32.2
		c-0.9,10.1-0.8,20.3,0.4,30.4c1.7,14.6,2.9,29.3,3.8,43.9c0.3,5.1,0.6,10.1,0.9,15.2c0.6,12.3,1.4,24.5,1.8,36.8
		c0.5,12.9,0.2,25.9,1,38.8c0.6,9.6,1.5,19.2,3.6,28.6c2.1,9.4,4.4,18.7,6.7,28.1c4.2,17.5,8.2,35,10.7,52.9
		c1.8,13.2,2.7,26.5,2.4,39.8c-0.1,5.1,0.1,10.1,0.6,15.2c1.1,11.1,3,22.1,4.6,33.1c1.7,11.3,2.6,22.7,1.9,34.1
		c-0.2,3.3-0.7,6.5-1.4,9.8c-1.4,6.4-5.2,10.6-11.3,12.7c-2.9,1-5.8,1.8-8.8,2.4c-4.8,1-9.7,1.9-14.5,3c-4.1,0.9-8,2.4-11.6,4.6
		c-3,1.8-5.6,4-7.5,6.9c-2.5,3.9-3.4,8.1-2.2,12.7c0.7,3,2.6,4.9,5.5,5.7c1,0.3,2,0.5,3,0.6c11.8,1.1,23.6,1.1,35.3-0.3
		c12.3-1.4,24.6-3.2,37-4.7c8.3-1,16.6-1.7,25-1.8c2.2,0,4.3,0,6.5,0c2.3,0,4.5-0.5,6.6-1.6c3-1.5,4.7-3.7,4.7-7.2
		c-0.1-4.6,1.1-9,2.5-13.4c0.5-1.4,1-2.9,1.6-4.3c2-5.1,3.9-10.2,4.8-15.6c0.1-0.4,0.1-1,0.9-1c0.5,3.9,1.1,7.8,1.6,11.6
		c0.9,6.7,2.6,13.2,6.7,18.8c0.8,1.1,1.4,2.4,1.9,3.7c2.2,4.9,1.8,9.7-1.4,14c-1.3,1.8-2.9,3.5-4.4,5.2c-1.8,2-3.8,3.8-5.5,5.7
		c-2.7,3-5.1,6.3-6.6,10.1c-1.9,4.7-2.5,9.5-1.5,14.5c0.9,4.2,3.3,6.6,7.6,7.3c7.7,1.1,15.4,1.7,23.1,1.1c8.2-0.6,16-2.5,23.2-6.6
		c5.6-3.3,11-6.8,16.1-10.8c2.4-1.9,4.6-4,6.4-6.4c3-4,4.7-8.4,4.5-13.4c0-1.9-0.1-3.8-0.3-5.7c-0.3-2.6,0.4-4.8,2-6.7
		c0.6-0.7,1.2-1.3,1.8-2c3-3.1,4.6-6.9,4.9-11.3c0.2-3.2,0.1-6.3-0.4-9.5c-0.9-5.8-1.7-11.5-2.6-17.3c-2.2-14.4-4.5-28.8-6.6-43.2
		c-1.2-8.1-2.4-16.3-3.2-24.5c-1.2-11.5-3.2-22.8-6-34c-3-12-6.8-23.9-10.5-35.7c-3.7-12-7.3-24-10.2-36.2
		c-3.1-13.2-4.4-26.7-6.1-40.2c-1.2-9.2-2.3-18.4-3.4-27.5c-0.9-7.9-1.9-15.9-2.7-23.8c-1-9.8-1.8-19.7-2.6-29.5
		c-1-11.9-1.6-23.8-1.9-35.7c-0.2-7.5-0.1-15-0.2-22.4c-0.1-7.9-0.6-15.7-2.2-23.4c-1.4-7.1-3.9-13.9-7.3-20.3
		c-7.5-14.3-9.9-29.4-7.3-45.3c1.6-9.6,4.7-18.6,8.8-27.4c1.8-3.9,3.9-7.7,5.7-11.6c5-10.6,8.8-21.6,11.8-32.9
		c0.7-2.7,1.2-2.9,3.6-1.4c0.9,0.5,1.6,1.2,2.4,1.8c3,2.3,6,4.7,9,7c6.3,4.8,13.2,8.5,19.9,12.6c2.4,1.4,5.1,2.4,7.9,2.3
		c4-0.2,8.1-0.5,12-1.9c2.5-0.9,5-1.8,7.6-2.3c3.5-0.6,6.9-1.5,10.2-2.9c2.2-1,4.6-1.5,7-1.7c3.8-0.4,7.5-1.4,10.9-3.1
		c4.3-2.2,8.8-3.9,13.6-4.7c1.9-0.3,3.3-1.2,4.1-3c0.4-0.9,1-1.7,1.6-2.6c2.8-4.4,5.6-8.8,9.3-12.5c2.3-2.3,4.7-4.5,6.3-7.4
		c0-0.1,0.2-0.1,0.3-0.1c0.5,0.2,0.7,0.7,0.8,1.2c0.4,1.7,0.9,3.4,1.3,5.1c2.8,10.8,6,21.5,8.3,32.4c3.2,15.6,4.2,31.4,1.4,47.2
		c-0.1,0.8-0.3,1.6,0.2,2.2c1.8,2,1.1,4-0.1,5.9c-1.2,2-1.6,4.2-1.8,6.5c-0.3,3.5-0.6,7.1-1.1,10.6c-1.9,13.3-2.4,26.7-3.4,40.1
		c-0.1,0.9,0,1.8,0.2,2.6c0.2,0.9,0.2,1.8-0.1,2.6c-0.7,1.8-0.7,3.7-0.8,5.6c-0.5,7.5-1,14.9-1,22.4c0,1.3,0.1,2.6-0.5,3.7
		c-0.7,1.3-0.7,2.7-0.8,4.1c-0.1,1.8-0.3,3.5-0.5,5.3c-0.8,4.5-1.7,9-2.4,13.5c-1.3,8.1-2,16.3-2.5,24.6c-0.3,5.1-0.6,10.1-1,15.2
		c-0.6,7.5-1.3,14.9-1.8,22.4c-0.8,13.4-1.6,26.8-2.3,40.2c-0.8,15.9-1.9,31.9-3.9,47.7c-1.3,10.6-3,21.1-5.2,31.5
		c-1.8,8.6-4.3,16.9-6.3,25.4c-5.2,21.6-8.7,43.5-10.8,65.6c-1.4,14.4-2.3,28.8-2.8,43.2c-0.4,11.9-0.4,23.8-0.5,35.7
		c0,4.3-0.3,8.6-0.9,12.9c-0.6,4.1-1,8.3-1.4,12.5c-0.4,4.7,0.4,9.1,3.7,12.8c1.4,1.5,2.3,3.3,3.1,5.2c1.8,3.9,2.4,8,1.3,12.2
		c-0.7,2.9-1.8,5.5-3,8.2c-1.5,3.3-3.1,6.7-4.5,10.1c-1.3,3.1-2,6.2-2.1,9.6c-0.2,5.6,2.3,9.4,7.2,12c2.8,1.5,5.9,2.3,9,2.9
		c8.4,1.6,16.9,1.7,25.4,0.6c3-0.4,6-1.1,8.8-2.2c4.8-2,8.2-5.5,9.9-10.4c0.9-2.5,1.4-5.1,1.7-7.8c0.6-5.6,0.2-11.1,0-16.7
		c-0.1-3.1,0.1-6.1,0.6-9.1c1-5.3,3.8-9.3,8.5-12c1.2-0.7,2.5-1.3,3.8-1.8c1.5-0.6,2.5-1.7,3.1-3.2c0.8-1.9,1.1-3.9,1.3-5.9
		c0.1-1.9,0.2-3.8,0.4-5.7c1.3-13.1,3.2-26.2,5.3-39.2c3-18.5,6.3-37,7.8-55.7c0.7-8.6,1.2-17.2,0.8-25.8c-0.4-9.5-0.5-19,0.2-28.5
		c0.9-11.4,2.9-22.6,6.9-33.4c10.7-28.4,17-57.8,21.3-87.7c1.5-10.3,2.7-20.6,4-30.9c1.2-10.2,2.4-20.4,3.5-30.6
		c1.1-9.4,2.2-18.9,3.3-28.3c0.2-1.5,0.4-3,0.6-4.5c0.1-0.4,0-1.2,0.7-1c0.6,0.1,0.5,0.7,0.6,1.2c0.1,0.2,0.1,0.5,0.1,0.8
		c1.6,9,3,18,4.7,26.9c4,20.4,7.1,40.9,10.3,61.5c2.5,15.9,5.1,31.8,8.5,47.5c4.2,19.2,9.7,38.1,17.5,56.1c1.3,3,1.9,6,2.1,9.2
		c0.5,6.8,1,13.7,1.5,20.5c0.9,12.5,2.4,25,4.1,37.4c2.1,15.2,4.5,30.3,7.2,45.4c4.1,22.8,8.6,45.6,13.1,68.3
		c0.3,1.5,0.8,2.9,1.3,4.4c1,2.7,3.1,4.3,5.9,4.8c0.9,0.2,1.8,0.2,2.6,0.4c4.2,0.8,6.8,3.2,7.6,7.4c0.3,1.7,0.5,3.5,0.7,5.3
		c0.3,3.4,0.5,6.8,0.9,10.2c0.6,5.4,1.8,10.7,3.8,15.8c4.4,11.3,12.6,18.1,24.5,20.5c8.4,1.7,16.9,1.6,25.4,0.5
		c3.8-0.5,7.4-1.6,10.7-3.8c4.3-2.9,6.6-6.9,6.5-12.2c0-3.1-0.9-6-2.1-8.8c-1.7-4-4.2-7.5-6.9-10.9c-1.9-2.4-3.8-4.7-5.7-7.1
		c-1.5-1.9-2.7-4-3.8-6.1c-2.2-4.7-2.1-9.3,0.2-13.9c0.9-1.8,1.9-3.6,3.3-5.1c1.8-1.9,2-3.9,1.7-6.3c-0.7-5.7-1.3-11.3-2-17
		c-1.1-9.8-2.2-19.6-3.3-29.5c-1.4-12.6-2.9-25.2-4.2-37.8c-1.1-10.6-2-21.2-2.6-31.8c-0.4-7-1.2-13.9-2.5-20.7
		c-1.9-10.4-4.7-20.5-7.6-30.6c-3.4-11.9-7.1-23.8-9.9-35.9c-1.9-8.2-3.4-16.4-4-24.7c-0.5-5.8-0.6-11.6-0.9-17.5
		c-0.3-5.6-0.6-11.1-1-16.7c-0.6-8.1-1.2-16.2-2-24.2c-0.8-8.7-1.6-17.4-2.6-26.1c-1.1-9.7-2.3-19.4-3.5-29.1
		c-1.1-8.3-2.3-16.6-3.4-24.9c-0.3-2-0.9-3.9-1.8-5.8c-1.7-3.5-3.3-7.1-4.8-10.8c-7-17.7-10.6-36.2-12.8-55
		c-0.9-7.7-1.5-15.4-1.9-23.1c-0.5-9.4-0.5-18.7,0-28.1c0.4-7,0.9-13.9,1.8-20.8c0.2-1.8,0.3-3.5-0.1-5.3c-0.9-4.1-1.4-8.2-1.5-12.4
		c-0.2-6.2-0.3-12.4-0.6-18.6c-0.4-7.9,0.3-15.7,2-23.4c2.1-9.9,4.3-19.8,6.4-29.7c0.2-1,0.5-2,1-2.9c0.9-1.8,2.5-2.3,4.5-1.7
		c1.2,0.4,2.3,1,3.2,1.9c1.4,1.3,2.7,2.7,3.8,4.2c4.8,6.4,9.5,12.8,14.3,19.2c1.3,1.7,2.2,3.4,2,5.5c0,0.5,0,1.1,0.2,1.5
		c1.5,2.9,2.8,6,4.7,8.6c2.4,3.3,4.5,6.7,5.8,10.6c0.3,1,0.9,1.8,1.8,2.3c1.1,0.6,2.1,1.4,3.3,1.9c1.9,0.8,3.6,1.8,5.2,3
		c0.8,0.6,1.7,1.1,2.6,1.6c3.6,2,7.6,2.7,11.7,2.9c2.6,0.1,5.4-0.1,7.9,0.8c3.5,1.2,7,0.6,10.5,0.7c0.6,0,1.2-0.4,1.8-0.5
		c2.4-0.7,4.8-1.7,7.2-2.2c3.5-0.7,6.3-2.5,8.6-5.2c1.3-1.5,2.5-3.2,3.6-4.9c1-1.5,2.2-2.7,3.7-3.7c4.1-2.6,8.1-5.2,12.1-7.9
		c1.6-1.1,3.3-1.7,5.3-1.9c5-0.4,9.7-1.7,13.9-4.5c1.1-0.8,2.5-1.3,3.8-1.6c2.3-0.5,4.3-1.3,5.9-3.3c0.4,1,0.7,1.7,0.9,2.4
		c3.8,11.3,8.1,22.4,12.9,33.3c1.6,3.7,3.1,7.5,4.4,11.3c3.4,9.7,5.7,19.7,6.4,30c0.9,14.5-1.8,28.2-7.9,41.4
		c-1.7,3.7-3.3,7.4-4.7,11.2c-1.6,4.4-2.6,9-2.6,13.8c0.1,13.3-0.3,26.6-1.4,39.9c-0.8,10.4-1.6,20.7-2.6,31.1
		c-1.3,14.1-2.9,28.2-4.2,42.4c-1.2,13.9-2.3,27.8-3.9,41.6c-1.1,9.1-2.5,18.1-4.3,27c-2,10.1-4.9,19.9-7.6,29.8
		c-7.2,26.1-14.4,52.3-19.7,78.9c-2.3,11.7-4.4,23.4-5.8,35.2c-1.1,9.3-2.5,18.6-4.2,27.8c-1.4,7.3-2.5,14.7-2.4,22.3
		c0.1,10.2,2.6,19.6,8.5,27.9c1.2,1.7,1.5,3.3,1.4,5.3c-0.3,6.5,0.3,12.9,2.1,19.2c3,10.6,9.8,17.5,20.3,20.7
		c0.8,0.3,1.7,0.5,2.6,0.7c7.6,1.8,15.3,2.3,23,2c3.3-0.1,6.6-0.7,9.6-2.1c5.5-2.5,8.4-6.7,8.4-12.8c0-1.8-0.2-3.5-0.6-5.3
		c-1-4.5-2.9-8.6-5.3-12.6c-2.1-3.6-4.2-7.2-6.3-10.8c-0.6-1-1.1-2-1.5-3.1c-0.8-2-0.5-3.6,1.4-5c3.9-2.9,6.1-7.1,7.1-11.8
		c0.2-1.1,0.4-2.2,0.6-3.4c0.8-5,1.1-10.1,2.4-15c6.3-24.4,10.7-49.3,14.1-74.3c1.8-13.2,3.1-26.4,4.7-39.6
		c1.2-9.8,3.2-19.5,6.9-28.7c0.6-1.5,0.9-3.2,2.2-4.3c1.5,1.4,0.7,3.3,1,4.9c0.2,0.8,0,1.8-0.2,2.6c-0.3,2-0.6,4-0.9,6
		c-1.8,13.3-4.1,26.5-6.5,39.7c-2.5,13.5-5,26.9-6.6,40.5c-1.5,13.4-2.4,26.7-1.4,40.2c0.9,12.2,3,24.1,6.9,35.7
		c0.8,2.3,1.7,4.5,2.7,6.7c2.3,4.6,6,7.4,11.3,7.9c4.2,0.4,8.3,0.8,12.5,1.2c13.4,1.2,26.7,3.2,40,5.1c5.9,0.9,11.8,1.7,17.7,2.6
		c8.6,1.2,17.2,0.5,25.8-0.2c1.6-0.1,3.3-0.5,4.8-1c6.1-1.8,8-5.7,5.9-11.7c-1.4-3.9-3.6-7.3-6.4-10.3c-4.1-4.3-9.2-6.7-14.8-8
		c-3.8-0.9-7.7-1.6-11.5-2.4c-4-0.8-7.9-1.8-11.5-3.8c-6.4-3.5-10.3-8.8-11.7-16c-0.6-3-0.6-6-1-9.1c-0.8-7.9-0.3-15.7,1.3-23.4
		c4.1-19.3,6.4-38.8,7.2-58.4c0.4-9.1,0.4-18.2,0.5-27.4c0-3.8-0.2-7.6-0.2-11.4c0-5.6,0.8-11.1,2.5-16.5
		c5.4-16.9,9.1-34.3,11.9-51.8c1.6-10.1,2.9-20.3,4-30.5c1.1-10.8,2.1-21.7,2.8-32.6c0.6-8.5,1.1-16.9,1.7-25.4
		c0.9-12.6,1.8-25.3,2.8-37.9c0.5-6.6,1.3-13.1,1.9-19.7c0.8-7.6,1.6-15.1,1.7-22.7c0.2-10.5,0.3-21-0.5-31.5
		c-0.7-9.6-1.3-19.2-2-28.8c-0.8-10.9-1.8-21.7-2.6-32.6c-0.2-2.1-0.1-4.3-0.1-6.5c0.1-2.3,0.5-4.5,1.4-6.7c1.7-4.2,4.7-6.4,9.3-6.6
		c3.5-0.1,6.8,0.7,10,2.1c3.4,1.4,6.7,3,10,4.6c3.3,1.6,6.6,3.2,10.1,4.5c3.6,1.3,7.3,2.2,11.1,2.1c4.2,0,7.7-1.5,10.5-4.5
		c4.2-4.5,7.3-9.8,9.1-15.6C1209.3,1118.5,1207,1112.5,1201.1,1108.8z M732.1,945.6c-0.7-0.7-0.3-1.6,0.2-2.4
		c0.2-0.3,0.4-0.6,0.6-0.9c0.5-0.6,1-1.2,1.9-0.9c1,0.4,1.7,1.1,1.9,2.4c-0.1,0.3-0.2,0.8-0.6,1.1c-0.4,0.4-1,0.8-1.6,1
		C733.7,946.1,732.7,946.3,732.1,945.6z"/>
	<path fill="#010000" d="M718.3,916.3c1.9,0.7,3.3,1.9,4.4,3.4c0.5,0.7,1,1.4,1.5,2.2c0.5,0.7,1.1,1,1.9,1c1,0,2-0.1,3-0.2
		c1.9-0.2,3.8-0.4,5-0.5c1,0.1,1.4,0,1.8,0.1c2.4,0.7,3.9-0.5,5-2.4c1.5-2.6,3-5.3,4.4-8c0.6-1.1,0.5-1.5-0.5-2.2
		c-2.7-1.7-5.5-3.2-8.4-4.5c-0.5-0.2-1-0.4-1.4-0.4c-3.1-0.1-6-1.2-8.9-1.9c-2.5-0.6-5-1-7.5-0.5c-0.6,0.1-1.2,0.1-1.9,0
		c-0.6-0.1-1.1-0.8-1.8-0.4c-0.8,0.4-0.6,1.3-0.6,2c-0.2,1.4-0.2,2.8-0.4,4.2C713.2,912.2,714.6,914.9,718.3,916.3z"/>
	<path fill="#010000" d="M752.8,916.9c0.4,0.3,0.8,0.6,1.3,0.8c1.8,0.7,3.5,1.4,5.3,2.1c0.3,0.1,0.7,0.2,1.2,0.3
		c0.4-0.1,0.9-0.2,1.3-0.4c0.8-0.4,1.5-0.9,2.3-1.3c1.6-0.7,3.4-1.2,4.8-2.2c3-2.1,5.9-4.4,8.7-6.6c0.7-0.5,1.1-1.3,1.6-2.1
		c0.4-0.6,0.2-1.3-0.2-1.8c-1.2-1.2-2.6-2-4.1-2.7c-1.3-0.6-1.7,0.9-2.7,1c-0.4,0-0.7,0.1-1.1,0.2c-3.9,1-7.9,1.9-12,1.9
		c-2.3,0-4.5,0.6-6.4,1.9C749,910.7,749,914.3,752.8,916.9z"/>
	<path fill="#010000" d="M1011.2,1030.4c1.2,0.6,2.4,0.7,3.5-0.3c0.4-0.4,0.7-0.7,1.1-1c1.9-1.4,3.1-1.5,4.5,0.4
		c1.8,2.2,4,2.9,6.7,2.7c1.9-0.1,2-0.2,2.4-2.2c0.2-1.1,0.1-1.6-0.8-1.7c-2-0.3-3.9-1-5.8-1.7c-1.8-0.6-3.6-1.1-5.2-0.9
		c-1.2,0.1-2.1,0.1-3,0.1c-1.5,0-2.6,0.7-3.7,1.7C1009.9,1028.4,1010,1029.9,1011.2,1030.4z"/>
	<path fill="#010000" d="M757.7,934.3c-1,0.8-0.5,1.9-0.4,2.8c0.3,1.6,0.4,3.3,2.9,3.1c0.5,0,1.1,1,1.6,1.5c0.7,0.7,1.2,1.6,2.3,1.8
		c-0.8-3.3-2.1-6.3-3.5-7.9C759.4,934.3,758.4,933.8,757.7,934.3z"/>
	<path fill="#010000" d="M781.7,893.8c0.1-0.9,0.1-0.9,0.9-2.2c0.2,0.7,0.3,1.3,0.5,1.9c0.1,0.2,0.3,0.4,0.5,0.5
		c0.2,0,0.5-0.2,0.5-0.4c0.4-2.4-0.4-6.1-1.9-8.8c-1.6,3.8-1,7.7-0.9,11.4C781.5,895.4,781.6,894.6,781.7,893.8z"/>
	<path fill="#010000" d="M788.1,879.6c0-2.4-0.4-4.7-1.4-7.7c-0.9,3.4-1.6,6.2-2.4,9.4c1.3-0.2,2-0.4,2.7-0.4
		C787.9,880.8,788.1,880.3,788.1,879.6z"/>
	<path fill="#010000" d="M711.8,854.4c0.3,0.1,0.7-0.2,1-0.3c0.8-0.4,0.8-1.2,0.8-2.1c-0.1-0.2-0.1-0.7-0.4-0.8
		c-0.7-0.4-0.8,0.3-1,0.7c-0.3,0.5-0.5,1.2-0.7,1.8C711.4,853.9,711.4,854.4,711.8,854.4z"/>
	<path fill="#010000" d="M782.9,904.7c-0.1,0-0.3,0-0.3,0.1c-0.9,0.8-1.4,1.8-0.9,3c0.1,0.2,0.3,0.4,0.5,0.6
		c0.2-0.1,0.5-0.2,0.5-0.3c0.4-0.9,0.8-1.9,0.7-2.9C783.4,905,783.1,904.8,782.9,904.7z"/>
	<path fill="#010000" d="M739,932.3c-0.5,0.2-0.9,0.5-1,1.1c0.3,0.2,0.6,0.4,1,0.6c0.5,0.3,0.9,0.5,1.2-0.1c0.3-0.4,0.5-0.9,0.2-1.4
		C740.1,932,739.5,932.1,739,932.3z"/>
	<path fill="#010000" d="M783.8,899.5c0.1-0.1,0.1-0.2,0.2-0.3c-0.1-0.1-0.1-0.2-0.2-0.3c-0.1,0.1-0.2,0.2-0.2,0.3
		C783.6,899.3,783.7,899.4,783.8,899.5z"/>
	<path fill="#010000" d="M760.4,970.7L760.4,970.7L760.4,970.7L760.4,970.7C760.5,970.6,760.5,970.6,760.4,970.7L760.4,970.7
		C760.4,970.6,760.4,970.6,760.4,970.7C760.4,970.6,760.4,970.6,760.4,970.7C760.4,970.6,760.4,970.6,760.4,970.7
		C760.4,970.7,760.4,970.7,760.4,970.7L760.4,970.7z"/>
	<path fill="#010000" d="M760.4,970.6c0,0,0-0.1,0-0.1C760.2,970.5,760.2,970.6,760.4,970.6z"/>
</g>
</svg>
