<?xml version="1.0" encoding="utf-8"?>
<!-- Generator: Adobe Illustrator 18.0.0, SVG Export Plug-In . SVG Version: 6.00 Build 0)  -->
<!DOCTYPE svg PUBLIC "-//W3C//DTD SVG 1.1//EN" "http://www.w3.org/Graphics/SVG/1.1/DTD/svg11.dtd">
<svg version="1.1" id="Layer_1" xmlns="http://www.w3.org/2000/svg" xmlns:xlink="http://www.w3.org/1999/xlink" x="0px" y="0px"
	 viewBox="0 0 1536 2048" enable-background="new 0 0 1536 2048" xml:space="preserve">
<g>
	<path fill="#010000" d="M1142,1135.3c-5.7-3.5-10.9-7.6-16.1-11.9c-3.6-3-7.2-6-10.9-8.9c-4.8-3.7-9.9-6.9-15.5-9.2
		c-2.5-1.1-4.9-2.4-7.2-3.9c-2.6-1.8-5.2-3.7-7.8-5.5c-2.8-2-5.5-4-8.3-5.8c-4.6-3-9.6-5.2-15-6.3c-2.3-0.4-4.5-1.1-6.7-1.8
		c-2.4-0.8-4.7-1.8-6.8-3.3c-3.2-2.4-4.9-5.5-5-9.5c0-2,0.1-3.9,0.5-5.9c0.6-2.8,1.4-5.5,2.4-8.2c2.2-6.3,3.6-12.8,4.3-19.5
		c1.1-10.1,0.4-20.1-0.8-30.1c-0.3-2.4-0.8-4.8-1.8-7c-3.9-8.9-10.3-15.1-19.4-18.5c-3.2-1.2-6.6-1.8-10-1.3
		c-11,1.4-19.1,7.1-24.8,16.5c-1.8,3-2.7,6.4-2.9,10c-0.1,1.5-0.3,3-0.5,4.6c-0.6,4.7-1.3,9.3-1.9,14c-0.4,3.6-0.3,7.2,0.4,10.8
		c1,4.8,3.2,9.1,6.6,12.6c1.9,2,3,4.3,3.4,7c0.2,1.3,0.3,2.6,0.3,3.9c-0.1,1.3,0,1.4,1.4,1.7c1.3,0.3,1.8,1.2,1.9,2.3
		c0.1,1.1,0,2.2,0,3.3c0,0.7,0,1.3,0.4,1.9c0.2,0.2,0.6,0.3,0.9,0.2c0.4-0.2,0.7-0.5,0.9-0.9c0.8-1.1,1.1-2.3,1.6-3.6
		c1.2-3.2,2.7-4.1,6-3.6c1,0.1,2,0.4,2.9,0.3c2-0.1,3.3,1.8,1.8,3.6c-1.2,1.4-1.8,3-2.6,4.5c-1.9,3.8-3.8,7.6-5.6,11.5
		c-1.1,2.4-2.8,3.6-5.3,3.9c-0.5,0.1-1.1,0.1-1.6,0.2c-6.2,0.5-11.7,2.6-16.6,6.3c-3,2.3-6.3,3.9-9.8,5.1c-2.7,0.9-5.3,2-7.8,3.3
		c-1.4,0.8-2.9,1.5-4.6,1.7c-1.6,0.2-2.9,1.1-4,2.1c-0.8,0.7-1.6,1.5-2.2,2.4c-1.7,2.2-3.8,3.9-5.8,5.7c-3.1,2.7-8,0.8-8.9-3.2
		c-0.5-2.4-1.1-4.9-1.9-7.2c-0.9-2.7-0.6-5.2,0.2-7.7c0.8-2.4,1.5-4.8,4.2-6c1-0.4,1.8-1.3,2.6-2c0.1-0.1,0.3-0.4,0.2-0.6
		c-0.1-0.3-0.3-0.6-0.6-0.7c-1-0.4-2-0.2-2.8,0.3c-0.7,0.5-1.4,1-2.1,1.6c-8.4,7.2-17.5,13.1-27.4,17.9c-3.3,1.6-6.5,3.1-9.8,4.6
		c-1.5,0.7-3,1.4-4.4,2.1c-1.2,0.6-2.4,0.7-3.4-0.2c-2-1.8-4.4-3.3-5.9-5.6c-6.3-9.3-12.4-18.9-16.9-29.3c-1.9-4.4-4.2-8.7-6.7-12.8
		c-6.5-10.5-14.8-19.3-25.2-25.9c-2.6-1.7-5.1-3.4-7.4-5.4c-5.2-4.3-10.9-7.6-17.3-9.8c-5.9-2-11.7-4.2-17.6-6.5
		c-2.7-1-5.2-2.2-7.9-3.3c-0.8-0.3-1.8-0.7-2-1.6c-0.3-1.8-1.5-2.4-3.1-2.8c-0.7-0.2-1.2-0.9-1.7-1.5c-0.9-0.8-1.9-1.4-3.1-1.8
		c-1.1-0.3-1.9,0-2,1c0,2.9-1.6,4.8-3.4,6.7c-0.4,0.4-0.6,0.9-1,1.3c-0.7,0.8-1.4,1.7-2.2,2.4c-3.1,2.6-6.4,4.9-10.1,6.7
		c-1.2,0.6-2.4,1-3.7,1.4c-1,0.2-2.4,0.8-2.9-0.4c-0.4-0.8,0.9-1.4,1.4-2c1.3-1.3,2.2-2.9,3.8-3.9c-0.6-0.4-1.2-0.5-1.8-0.2
		c-1.1,0.5-2.2,1.1-3.3,1.5c-1,0.4-2.1,0.8-3.1,0.9c-1.4,0.2-2.1-0.3-2.5-1.9c-0.3-1.2-0.7-1.5-1.7-1.3c-0.8,0.2-1.7,0.5-2.5,0.8
		c-3.3,1.3-3.5,1.2-5.8-1.4c-0.4-0.4-0.7-0.8-1-1.3c-0.4-0.7-0.3-1.4,0.2-2.1c0.4-0.6,1-0.9,1.7-0.8c1.1,0.1,2.2,0.2,3.2,0.4
		c3.4,0.9,6-0.5,8.3-2.7c0.9-0.8,1.2-1.9,0.9-2.3c-0.5-0.6-1.2-0.4-1.8-0.5c-0.2,0-0.4,0-0.6-0.1c-0.5-0.1-0.8-0.4-0.8-0.9
		c-0.1-0.5,0.2-0.8,0.6-1.1c0.8-0.6,1.8-0.7,2.8-0.7c3-0.1,5.9,0,8.8,0.5c3.6,0.7,3.2,0.4,3.1-2.8c0-0.6,0-1.3-0.2-1.9
		c-0.1-0.4-0.5-0.8-0.8-0.1c-0.3,0.6-0.8,0.7-1.4,0.7c-2.2-0.2-4.4,0-6.5,0.4c-0.3,0.1-0.7,0-1,0c-0.8,0-1.2-0.5-1.2-1.2
		c0-0.3,0-0.7,0-1c0-0.6-0.3-1-0.9-1.1c-0.8-0.1-1.5,0-2.3-0.2c-1.7-0.3-3.5-0.7-4.8-2c-1.4-1.4-3-2.5-4.5-3.9c-1-0.9-1.9-1.8-2.5-3
		c-0.2-0.5-0.4-1-1.2-1c-0.7,0.6-1.4,1.2-2.2,1.8c-1.6,1.3-3.4,1.4-5.2,0.6c-0.9-0.4-1.7-0.9-2.5-1.5c-0.5-0.5-1-1.7-1.7-1.3
		c-0.9,0.4-0.2,1.5-0.1,2.3c0.2,0.9,0.4,1.7,0.7,2.5c1.8,4.3,2.2,8.7,1.1,13.2c-0.4,1.7-0.1,3.2,0.9,4.6c0.8,1.2,1.5,2.4,1.8,3.8
		c0.1,0.5,0.2,1.1,0.2,1.6c0,0.9-0.8,1.3-1.6,1c-1.6-0.6-2.7-1.8-3.7-3.1c-0.7-0.8-1-2-2-2.6c-0.4,0.2-0.8,0.3-1.2,0.5
		c-4.8,2.6-9.8,4.9-14.8,7.2c-4.2,1.9-8.4,3.7-12.5,5.9c-10.9,5.7-21.9,11-33.1,16c-2.1,1-3.6,2.3-4.6,4.4c-0.4,0.9-0.9,1.8-1.1,2.7
		c-0.4,1.4-1.1,2.6-2,3.7c-3.8,4.8-6.8,10.2-9.2,15.8c-1.8,4.1-3.5,8.2-5.3,12.4c-0.6,1.3-1.3,2.4-2.6,3.3c-3.9,2.8-7,6.2-9,10.7
		c-0.8,1.8-2.1,3.1-3.9,3.8c-2.9,1.2-5.7,2.7-8,5c-0.8,0.8-1.9,1-3.1,0.6c-3-0.9-6.1-1.6-9.1-2.7c-8.2-2.8-16.3-5.8-24.4-8.7
		c-2.3-0.8-4.1-1.9-4.4-4.6c-2.9-8.3-8.2-14.4-16.3-17.8c-4.3-1.8-8.8-2.1-13.4-2.7c0.1,0.4,0.1,0.7,0.2,0.8
		c1.8,2.5,3.1,5.2,4.3,8.1c1,2.5,2.7,4.5,4.8,6.1c1.3,1,2.6,2,3.8,3.1c0.5,0.4,1.1,0.7,1.8,0.3c1-0.6,1.5-0.2,1.9,0.9
		c0.2,0.7,1,1.2,1.4,1.7c2.9,3.6,4.9,7.5,5.1,12.2c0.1,1.4,0,2.8-0.8,4.1c-1.1,1.8-1.6,3.8-1.5,6c0,1.7-0.8,3.1-2,4.3
		c-1.2,1.1-2,1.2-3,0c-2.2-2.5-4.9-4.3-7.7-6.1c-1.9-1.2-3.8-2.2-5.3-3.9c-0.4-0.5-1-0.8-1.6-1c-0.7-0.2-1.2-0.6-1.6-1
		c-2.2-2.2-4.9-3.3-7.7-4.2c-2.6-0.8-5.2-1.7-7.8-2.5c-0.6-0.2-1.3-0.4-1.9-0.3c-2.9,0.2-5.3-1-7.5-2.7c-1.3-1-2.6-2-3.9-3
		c-1.2-0.9-2.4-1.6-3.9-1.6c-1.2,0-2.1-0.6-3-1.2c-1.4-0.9-3-1.3-4.7-1.3c-0.4,0-0.9,0-1.3,0c-3.2,0.2-5.4-1.3-6.8-4.2
		c-0.5-1-0.9-2-1.6-2.9c-1.7-2.6-2.2-5.3-2.2-8.4c0.1-3.3,0.8-6.7-0.9-10c-0.7-1.3,0.5-3.1,2.5-2.9c2.2,0.3,4,0.9,4.6,3.4
		c0.2,0.9,0.8,1.8,1.3,2.6c0.4,0.7,0.9,1.3,1.4,1.8c1.1,1.2,2.6,1.5,4.2,1.4c1.4-0.1,2.2-0.9,2.7-2c0.1-0.2,0.2-0.4,0.4-0.5
		c1.2-1.4,3-1.4,4.2,0c0.5,0.6,0.9,1.3,1.4,1.8c1,1.2,2.4,1.6,3.9,1.1c1.5-0.5,2.9-1.1,4.1-2c1.2-0.8,1.4-1.5,0.8-2.8
		c-0.9-2.1-2.2-3.7-4.2-4.9c-3.5-2.1-6.1-5.3-8.8-8.3c-1.5-1.6-1.2-4.4-0.2-5.8c1.3-1.6,2.9-1.9,5.3-0.9c0.4,0.2,0.8,0.4,1.2,0.6
		c2.5,1.2,4.7,2.8,6.6,4.8c3.6,3.9,8,6.8,12.1,10c0.7,0.5,1.3,0.4,1.5-0.5c0.8-3.6,2.7-6.7,4.7-9.7c1-1.5,2.1-3.1,3.1-4.6
		c0.9-1.4,1.6-2.8,2.3-4.3c1.5-3.2,1.7-6.5,0.4-9.9c-1-2.7-1.7-5.4-2.1-8.2c-0.6-4-0.9-8-1.1-12.1c-0.1-3.7-1.1-7.1-2.9-10.3
		c-4.3-7.5-10.5-12.8-18.6-15.9c-3.1-1.2-6.3-1.7-9.7-1.3c-10,1.4-17.7,6.5-23.4,14.8c-1.8,2.7-2.8,5.7-3.2,8.9
		c-0.3,2.5-0.8,5-1.1,7.5c-0.8,6.2-1.6,12.4-1.7,18.6c-0.1,8.2,1,16.2,4.3,23.7c3.3,7.5,3.6,15.3,3,23.2c-0.1,1.3-0.5,2.6-1,3.8
		c-0.8,1.9-2.2,3.2-4.3,3.7c-0.5,0.1-1.1,0.3-1.6,0.4c-4.3,0.9-8.4,2.5-12.3,4.5c-3.1,1.6-6.1,3.5-9,5.5c-3.3,2.3-6.7,4.6-10,6.9
		c-4.4,3-9,5.8-14,7.9c-2.5,1.1-5.1,2-7.9,1.7c-0.3,0-0.7,0-1,0c-2.5,0.1-4.3,1.1-5.5,3.5c-2.2,4.4-5.6,7.8-9.7,10.6
		c-1.6,1.1-3.3,2.2-5,3.1c-2.7,1.5-5.4,2.9-8.1,4.4c-2.5,1.4-5,2.8-7.2,4.5c-1.9,1.4-3.8,3-5.2,5c-2.1,3-3.1,6.3-2.2,9.9
		c1.5,6,4.4,11.2,8.6,15.6c0.1,0.1,0.2,0.2,0.2,0.2c2.2,2,4.7,3.1,7.7,3.1c2,0,3.9-0.2,5.8-0.7c2.5-0.7,5-1.6,7.4-2.7
		c4.3-1.9,8.7-3.6,13.2-4.8c1.5-0.4,3-0.8,4.5-0.9c4.9-0.3,8.3,1.9,9.8,6c0.7,1.8,1.1,3.6,1.2,5.4c0.5,9.1,0.3,18.2-0.4,27.2
		c-0.7,9.3-1.6,18.5-2.4,27.8c-0.8,8.8-0.7,17.5,0.3,26.2c1.5,12.6,2.5,25.3,3.3,37.9c0.3,4.4,0.5,8.7,0.8,13.1
		c0.5,10.6,1.2,21.2,1.5,31.8c0.4,11.2,0.2,22.3,0.9,33.5c0.5,8.3,1.3,16.6,3.1,24.7c1.8,8.1,3.8,16.2,5.7,24.3
		c3.7,15.1,7.1,30.2,9.2,45.7c1.6,11.4,2.3,22.9,2.1,34.4c-0.1,4.4,0.1,8.8,0.5,13.1c0.9,9.6,2.6,19.1,4,28.6
		c1.4,9.8,2.2,19.6,1.6,29.5c-0.2,2.8-0.6,5.7-1.2,8.4c-1.2,5.5-4.5,9.1-9.8,11c-2.5,0.9-5,1.5-7.6,2c-4.2,0.8-8.4,1.6-12.5,2.6
		c-3.5,0.8-6.9,2.1-10,4c-2.6,1.5-4.8,3.4-6.5,5.9c-2.2,3.4-2.9,7-1.9,11c0.6,2.6,2.2,4.2,4.8,4.9c0.8,0.2,1.7,0.4,2.6,0.5
		c10.2,0.9,20.3,0.9,30.5-0.2c10.7-1.2,21.3-2.7,31.9-4c7.2-0.9,14.4-1.5,21.6-1.5c1.9,0,3.7,0,5.6,0c2,0,3.9-0.5,5.7-1.3
		c2.6-1.3,4.1-3.2,4-6.2c-0.1-4,0.9-7.8,2.1-11.6c0.4-1.2,0.9-2.5,1.4-3.7c1.7-4.4,3.4-8.8,4.2-13.5c0.1-0.4,0.1-0.9,0.8-0.8
		c0.5,3.4,0.9,6.7,1.4,10.1c0.8,5.8,2.3,11.4,5.8,16.2c0.7,1,1.2,2.1,1.7,3.2c1.9,4.3,1.5,8.3-1.2,12.1c-1.2,1.6-2.5,3-3.8,4.5
		c-1.6,1.7-3.2,3.3-4.8,5c-2.4,2.6-4.4,5.4-5.7,8.7c-1.6,4.1-2.2,8.2-1.3,12.5c0.8,3.6,2.8,5.7,6.6,6.3c6.6,1,13.3,1.5,20,1
		c7.1-0.5,13.9-2.1,20-5.7c4.8-2.8,9.5-5.9,13.9-9.3c2.1-1.6,4-3.4,5.5-5.6c2.6-3.4,4-7.3,3.9-11.6c0-1.6-0.1-3.3-0.3-4.9
		c-0.3-2.2,0.3-4.1,1.7-5.8c0.5-0.6,1-1.1,1.6-1.7c2.6-2.7,4-6,4.2-9.7c0.2-2.7,0.1-5.5-0.3-8.2c-0.8-5-1.5-10-2.3-14.9
		c-1.9-12.4-3.9-24.9-5.7-37.3c-1-7-2-14.1-2.8-21.2c-1.1-9.9-2.7-19.7-5.2-29.4c-2.6-10.4-5.9-20.6-9-30.9
		c-3.2-10.3-6.3-20.7-8.8-31.3c-2.7-11.4-3.8-23.1-5.3-34.7c-1-7.9-2-15.9-2.9-23.8c-0.8-6.8-1.6-13.7-2.3-20.6
		c-0.8-8.5-1.5-17-2.2-25.5c-0.9-10.3-1.4-20.5-1.7-30.8c-0.2-6.5-0.1-12.9-0.2-19.4c-0.1-6.8-0.5-13.6-1.9-20.2
		c-1.2-6.2-3.4-12-6.3-17.5c-6.4-12.3-8.6-25.4-6.3-39.1c1.4-8.3,4.1-16.1,7.6-23.7c1.6-3.4,3.3-6.6,4.9-10
		c4.3-9.1,7.6-18.6,10.2-28.4c0.6-2.3,1.1-2.5,3.1-1.2c0.7,0.4,1.4,1,2.1,1.6c2.6,2,5.2,4.1,7.8,6.1c5.4,4.1,11.4,7.4,17.2,10.8
		c2.1,1.2,4.4,2.1,6.9,2c3.5-0.2,7-0.4,10.3-1.6c2.1-0.8,4.3-1.6,6.6-2c3-0.5,6-1.3,8.8-2.5c1.9-0.8,3.9-1.3,6-1.5
		c3.3-0.4,6.5-1.2,9.4-2.7c3.7-1.9,7.6-3.4,11.7-4.1c1.6-0.3,2.8-1,3.5-2.6c0.4-0.8,0.9-1.5,1.4-2.2c2.4-3.8,4.8-7.6,8-10.8
		c2-2,4.1-3.9,5.4-6.4c0-0.1,0.2-0.1,0.3-0.1c0.4,0.2,0.6,0.6,0.7,1c0.4,1.5,0.8,3,1.2,4.4c2.4,9.3,5.2,18.5,7.2,28
		c2.8,13.5,3.7,27.1,1.2,40.7c-0.1,0.7-0.3,1.3,0.2,1.9c1.5,1.8,1,3.4-0.1,5.1c-1.1,1.7-1.4,3.6-1.6,5.6c-0.3,3.1-0.5,6.1-1,9.1
		c-1.6,11.5-2.1,23.1-3,34.7c-0.1,0.8,0,1.5,0.1,2.3c0.2,0.8,0.2,1.5-0.1,2.2c-0.6,1.6-0.6,3.2-0.7,4.8c-0.4,6.4-0.9,12.9-0.9,19.4
		c0,1.1,0.1,2.2-0.4,3.2c-0.6,1.1-0.6,2.3-0.7,3.5c-0.1,1.5-0.2,3.1-0.5,4.6c-0.7,3.9-1.5,7.7-2.1,11.6c-1.1,7-1.8,14.1-2.1,21.2
		c-0.2,4.4-0.5,8.7-0.9,13.1c-0.5,6.4-1.2,12.9-1.6,19.3c-0.7,11.6-1.4,23.2-2,34.8c-0.7,13.8-1.7,27.5-3.3,41.2
		c-1.1,9.1-2.6,18.2-4.5,27.2c-1.6,7.4-3.7,14.6-5.5,22c-4.5,18.6-7.5,37.5-9.3,56.6c-1.2,12.4-2,24.9-2.4,37.3
		c-0.3,10.3-0.3,20.6-0.4,30.9c0,3.7-0.3,7.4-0.8,11.1c-0.5,3.6-0.9,7.2-1.2,10.8c-0.3,4,0.3,7.8,3.2,11c1.2,1.3,2,2.9,2.7,4.5
		c1.5,3.4,2,6.9,1.2,10.6c-0.6,2.5-1.5,4.8-2.6,7.1c-1.3,2.9-2.7,5.8-3.9,8.7c-1.1,2.6-1.7,5.4-1.8,8.3c-0.1,4.8,2,8.1,6.2,10.3
		c2.5,1.3,5.1,2,7.8,2.5c7.3,1.4,14.6,1.4,21.9,0.5c2.6-0.3,5.2-0.9,7.6-1.9c4.2-1.7,7-4.7,8.6-9c0.8-2.2,1.2-4.4,1.5-6.7
		c0.5-4.8,0.2-9.6,0-14.4c-0.1-2.6,0.1-5.2,0.5-7.8c0.8-4.6,3.3-8.1,7.3-10.4c1-0.6,2.1-1.1,3.3-1.5c1.3-0.5,2.1-1.5,2.7-2.7
		c0.7-1.6,1-3.4,1.1-5.1c0.1-1.6,0.2-3.3,0.3-4.9c1.1-11.3,2.7-22.6,4.6-33.8c2.6-16,5.4-31.9,6.7-48.1c0.6-7.4,1.1-14.9,0.7-22.3
		c-0.4-8.2-0.4-16.4,0.2-24.6c0.8-9.9,2.5-19.5,6-28.8c9.2-24.5,14.7-49.9,18.4-75.8c1.3-8.9,2.4-17.8,3.5-26.7
		c1.1-8.8,2-17.6,3.1-26.4c0.9-8.2,1.9-16.3,2.9-24.5c0.2-1.3,0.3-2.6,0.5-3.9c0.1-0.4,0-1,0.6-0.9c0.5,0.1,0.5,0.6,0.6,1
		c0,0.2,0.1,0.4,0.1,0.6c1.4,7.8,2.6,15.5,4.1,23.3c3.5,17.6,6.2,35.4,8.9,53.1c2.1,13.7,4.4,27.4,7.4,41
		c3.6,16.6,8.4,32.9,15.2,48.5c1.1,2.6,1.6,5.2,1.8,8c0.4,5.9,0.8,11.8,1.3,17.7c0.8,10.8,2.1,21.6,3.6,32.3
		c1.8,13.1,3.9,26.2,6.2,39.2c3.5,19.7,7.4,39.3,11.3,59c0.3,1.3,0.7,2.5,1.1,3.8c0.9,2.3,2.7,3.7,5.1,4.2c0.8,0.1,1.5,0.2,2.3,0.3
		c3.6,0.7,5.9,2.8,6.6,6.4c0.3,1.5,0.4,3,0.6,4.6c0.3,2.9,0.4,5.9,0.8,8.8c0.6,4.7,1.6,9.3,3.3,13.7c3.8,9.8,10.9,15.6,21.1,17.7
		c7.3,1.5,14.6,1.4,21.9,0.4c3.3-0.4,6.4-1.4,9.2-3.3c3.7-2.5,5.7-5.9,5.6-10.5c0-2.7-0.7-5.2-1.8-7.6c-1.5-3.5-3.6-6.5-6-9.4
		c-1.6-2.1-3.3-4.1-4.9-6.2c-1.3-1.6-2.4-3.4-3.2-5.3c-1.9-4-1.8-8,0.1-12c0.8-1.6,1.6-3.1,2.9-4.4c1.5-1.6,1.7-3.4,1.5-5.5
		c-0.6-4.9-1.1-9.8-1.7-14.7c-1-8.5-1.9-17-2.9-25.4c-1.2-10.9-2.5-21.7-3.6-32.6c-0.9-9.1-1.7-18.3-2.3-27.5
		c-0.4-6-1.1-12-2.2-17.9c-1.7-8.9-4-17.7-6.5-26.4c-3-10.3-6.1-20.6-8.5-31c-1.6-7-2.9-14.2-3.5-21.4c-0.4-5-0.5-10.1-0.8-15.1
		c-0.3-4.8-0.5-9.6-0.9-14.4c-0.5-7-1.1-14-1.7-20.9c-0.7-7.5-1.4-15-2.2-22.5c-0.9-8.4-2-16.7-3-25.1c-0.9-7.2-2-14.3-2.9-21.5
		c-0.2-1.8-0.8-3.4-1.6-5c-1.5-3-2.9-6.1-4.1-9.3c-6.1-15.3-9.1-31.2-11.1-47.5c-0.8-6.6-1.3-13.3-1.6-20c-0.4-8.1-0.4-16.2,0-24.3
		c0.3-6,0.8-12,1.6-18c0.2-1.5,0.2-3-0.1-4.6c-0.8-3.5-1.2-7.1-1.3-10.7c-0.2-5.4-0.3-10.7-0.5-16.1c-0.3-6.8,0.3-13.6,1.7-20.2
		c1.8-8.6,3.7-17.1,5.5-25.7c0.2-0.8,0.5-1.7,0.9-2.5c0.8-1.5,2.2-2,3.9-1.5c1.1,0.3,2,0.9,2.8,1.7c1.2,1.1,2.3,2.3,3.3,3.6
		c4.2,5.5,8.2,11.1,12.4,16.6c1.1,1.4,1.9,2.9,1.7,4.8c0,0.4,0,0.9,0.2,1.3c1.3,2.5,2.4,5.2,4.1,7.5c2.1,2.9,3.9,5.8,5,9.2
		c0.3,0.9,0.8,1.5,1.6,2c0.9,0.5,1.9,1.2,2.8,1.6c1.6,0.7,3.1,1.6,4.5,2.6c0.7,0.5,1.5,0.9,2.2,1.4c3.2,1.7,6.6,2.3,10.1,2.5
		c2.3,0.1,4.6-0.1,6.8,0.7c3,1,6.1,0.5,9.1,0.6c0.5,0,1-0.3,1.6-0.5c2.1-0.6,4.1-1.4,6.2-1.9c3.1-0.6,5.5-2.2,7.5-4.5
		c1.1-1.3,2.2-2.7,3.1-4.2c0.8-1.3,1.9-2.3,3.2-3.2c3.5-2.2,7-4.5,10.5-6.8c1.4-0.9,2.8-1.5,4.5-1.6c4.3-0.3,8.4-1.5,12-3.9
		c1-0.7,2.2-1.2,3.3-1.4c2-0.4,3.7-1.2,5.1-2.9c0.3,0.9,0.6,1.5,0.8,2.1c3.2,9.8,7,19.3,11.1,28.8c1.4,3.2,2.6,6.5,3.8,9.8
		c3,8.4,4.9,17,5.5,25.9c0.8,12.5-1.5,24.4-6.8,35.7c-1.5,3.2-2.8,6.4-4.1,9.7c-1.4,3.8-2.3,7.8-2.2,11.9c0.1,11.5-0.3,23-1.2,34.4
		c-0.7,8.9-1.4,17.9-2.3,26.8c-1.1,12.2-2.5,24.4-3.6,36.6c-1.1,12-2,24-3.4,36c-0.9,7.8-2.2,15.6-3.7,23.3
		c-1.7,8.7-4.2,17.2-6.6,25.7c-6.2,22.6-12.4,45.1-17,68.1c-2,10.1-3.8,20.2-5,30.4c-1,8-2.1,16-3.6,24c-1.2,6.3-2.1,12.7-2.1,19.2
		c0.1,8.8,2.3,16.9,7.3,24.1c1,1.5,1.3,2.8,1.2,4.6c-0.3,5.6,0.3,11.2,1.8,16.6c2.6,9.1,8.5,15.1,17.6,17.9c0.7,0.2,1.5,0.4,2.2,0.6
		c6.5,1.6,13.2,2,19.9,1.7c2.8-0.1,5.7-0.6,8.3-1.8c4.8-2.2,7.3-5.8,7.3-11.1c0-1.5-0.1-3-0.5-4.6c-0.9-3.9-2.5-7.4-4.5-10.9
		c-1.8-3.1-3.6-6.2-5.4-9.4c-0.5-0.9-0.9-1.8-1.3-2.7c-0.7-1.7-0.4-3.1,1.2-4.3c3.4-2.5,5.3-6.1,6.1-10.2c0.2-1,0.4-1.9,0.5-2.9
		c0.7-4.3,1-8.7,2.1-13c5.5-21.1,9.3-42.5,12.2-64.1c1.5-11.4,2.7-22.8,4.1-34.2c1-8.5,2.8-16.8,6-24.8c0.5-1.3,0.8-2.7,1.9-3.7
		c1.3,1.2,0.6,2.8,0.9,4.2c0.2,0.7,0,1.5-0.1,2.3c-0.2,1.7-0.5,3.5-0.8,5.2c-1.5,11.5-3.5,22.9-5.7,34.3c-2.1,11.6-4.3,23.2-5.7,35
		c-1.3,11.5-2.1,23.1-1.2,34.7c0.8,10.5,2.6,20.8,6,30.8c0.7,2,1.4,3.9,2.4,5.8c2,4,5.2,6.4,9.7,6.9c3.6,0.4,7.2,0.7,10.8,1
		c11.6,1.1,23,2.7,34.5,4.4c5.1,0.8,10.2,1.5,15.3,2.2c7.4,1.1,14.9,0.4,22.3-0.1c1.4-0.1,2.8-0.4,4.2-0.8c5.2-1.6,6.9-4.9,5.1-10.1
		c-1.2-3.3-3.1-6.3-5.5-8.9c-3.5-3.7-8-5.7-12.8-6.9c-3.3-0.8-6.6-1.4-10-2c-3.5-0.7-6.8-1.6-9.9-3.3c-5.6-3-8.9-7.6-10.1-13.8
		c-0.5-2.6-0.6-5.2-0.8-7.8c-0.7-6.8-0.3-13.5,1.2-20.2c3.6-16.6,5.5-33.5,6.2-50.4c0.3-7.9,0.3-15.8,0.4-23.6
		c0-3.3-0.2-6.6-0.2-9.8c0-4.8,0.7-9.6,2.2-14.2c4.6-14.6,7.9-29.6,10.2-44.7c1.4-8.8,2.5-17.5,3.4-26.4c1-9.4,1.8-18.7,2.4-28.1
		c0.5-7.3,1-14.6,1.5-21.9c0.8-10.9,1.6-21.8,2.5-32.7c0.5-5.7,1.1-11.3,1.7-17c0.7-6.5,1.3-13.1,1.5-19.6
		c0.2-9.1,0.2-18.2-0.4-27.2c-0.6-8.3-1.1-16.6-1.7-24.9c-0.7-9.4-1.5-18.8-2.3-28.1c-0.1-1.9-0.1-3.7-0.1-5.6
		c0.1-2,0.5-3.9,1.2-5.8c1.4-3.6,4.1-5.5,8-5.7c3-0.1,5.9,0.6,8.6,1.8c2.9,1.2,5.8,2.6,8.6,4c2.9,1.4,5.7,2.8,8.7,3.9
		c3.1,1.1,6.3,1.9,9.6,1.8c3.6,0,6.7-1.3,9.1-3.9c3.6-3.9,6.3-8.4,7.9-13.5C1149.2,1143.7,1147.2,1138.4,1142,1135.3z M737,994.3
		c-0.6-0.6-0.2-1.4,0.2-2.1c0.2-0.3,0.3-0.5,0.5-0.8c0.4-0.5,0.8-1,1.6-0.8c0.9,0.3,1.4,0.9,1.6,2c-0.1,0.2-0.2,0.7-0.5,1
		c-0.4,0.4-0.8,0.7-1.3,0.9C738.4,994.8,737.5,994.9,737,994.3z"/>
	<path fill="#010000" d="M725,969c1.6,0.6,2.8,1.6,3.8,3c0.5,0.6,0.9,1.2,1.3,1.9c0.4,0.6,1,0.9,1.7,0.9c0.9,0,1.7-0.1,2.6-0.2
		c1.6-0.2,3.3-0.3,4.4-0.4c0.9,0.1,1.2,0,1.5,0.1c2.1,0.6,3.4-0.4,4.3-2c1.3-2.3,2.5-4.6,3.8-6.9c0.5-0.9,0.4-1.3-0.5-1.9
		c-2.3-1.5-4.7-2.7-7.2-3.9c-0.4-0.2-0.8-0.3-1.2-0.4c-2.7-0.1-5.1-1-7.7-1.6c-2.1-0.5-4.3-0.9-6.5-0.5c-0.5,0.1-1.1,0.1-1.6,0
		c-0.5-0.1-0.9-0.7-1.5-0.4c-0.7,0.4-0.5,1.1-0.6,1.7c-0.1,1.2-0.2,2.4-0.4,3.6C720.7,965.5,721.9,967.8,725,969z"/>
	<path fill="#010000" d="M754.8,969.6c0.4,0.2,0.7,0.5,1.1,0.7c1.5,0.6,3,1.2,4.6,1.8c0.3,0.1,0.6,0.2,1.1,0.3
		c0.3-0.1,0.7-0.2,1.1-0.4c0.7-0.3,1.3-0.8,2-1.1c1.4-0.6,2.9-1,4.2-1.9c2.6-1.8,5.1-3.8,7.5-5.7c0.6-0.5,1-1.2,1.4-1.8
		c0.3-0.5,0.2-1.1-0.2-1.5c-1-1-2.2-1.7-3.5-2.3c-1.1-0.5-1.4,0.8-2.3,0.9c-0.3,0-0.6,0.1-1,0.2c-3.4,0.9-6.8,1.6-10.3,1.6
		c-2,0-3.9,0.5-5.6,1.7C751.6,964.2,751.6,967.3,754.8,969.6z"/>
	<path fill="#010000" d="M978,1067.6c1,0.5,2.1,0.6,3-0.3c0.3-0.3,0.6-0.6,1-0.9c1.7-1.2,2.6-1.3,3.9,0.3c1.5,1.9,3.5,2.5,5.8,2.4
		c1.6-0.1,1.7-0.1,2.1-1.9c0.2-1,0.1-1.3-0.7-1.4c-1.7-0.2-3.4-0.9-5-1.4c-1.6-0.5-3.1-0.9-4.5-0.8c-1.1,0-1.8,0.1-2.6,0.1
		c-1.3,0-2.3,0.6-3.2,1.5C976.9,1065.9,977,1067.1,978,1067.6z"/>
	<path fill="#010000" d="M759.1,984.5c-0.9,0.7-0.5,1.6-0.3,2.4c0.2,1.4,0.4,2.9,2.5,2.7c0.4,0,0.9,0.9,1.4,1.3c0.6,0.6,1,1.4,2,1.6
		c-0.7-2.8-1.8-5.4-3.1-6.8C760.6,984.6,759.7,984.1,759.1,984.5z"/>
	<path fill="#010000" d="M779.8,949.6c0.1-0.8,0.1-0.8,0.8-1.9c0.1,0.6,0.2,1.1,0.4,1.6c0.1,0.2,0.3,0.4,0.4,0.4
		c0.1,0,0.4-0.2,0.4-0.3c0.3-2-0.3-5.3-1.6-7.6c-1.4,3.3-0.9,6.6-0.7,9.9C779.7,951,779.8,950.3,779.8,949.6z"/>
	<path fill="#010000" d="M785.4,937.4c0-2.1-0.4-4.1-1.2-6.6c-0.8,3-1.4,5.3-2.1,8.1c1.1-0.2,1.7-0.3,2.3-0.4
		C785.2,938.4,785.4,937.9,785.4,937.4z"/>
	<path fill="#010000" d="M719.5,915.6c0.3,0.1,0.6-0.2,0.9-0.3c0.7-0.4,0.7-1.1,0.7-1.8c-0.1-0.2-0.1-0.6-0.3-0.7
		c-0.6-0.4-0.7,0.3-0.9,0.6c-0.3,0.5-0.4,1-0.6,1.5C719.1,915.2,719.1,915.6,719.5,915.6z"/>
	<path fill="#010000" d="M780.9,959c-0.1,0-0.2,0-0.3,0.1c-0.8,0.7-1.2,1.5-0.8,2.6c0.1,0.2,0.3,0.3,0.4,0.5
		c0.2-0.1,0.4-0.1,0.4-0.3c0.3-0.8,0.7-1.6,0.6-2.5C781.3,959.3,781,959.1,780.9,959z"/>
	<path fill="#010000" d="M743,982.9c-0.4,0.2-0.7,0.5-0.9,0.9c0.3,0.2,0.6,0.3,0.8,0.5c0.4,0.3,0.8,0.4,1.1-0.1
		c0.2-0.4,0.5-0.8,0.2-1.2C743.9,982.6,743.4,982.7,743,982.9z"/>
	<path fill="#010000" d="M781.6,954.6c0.1-0.1,0.1-0.2,0.2-0.2c0-0.1-0.1-0.2-0.1-0.2c-0.1,0.1-0.2,0.2-0.2,0.2
		C781.5,954.4,781.6,954.5,781.6,954.6z"/>
	<path fill="#010000" d="M761.4,1016L761.4,1016L761.4,1016L761.4,1016C761.5,1015.9,761.5,1015.9,761.4,1016L761.4,1016
		C761.4,1015.9,761.4,1015.9,761.4,1016C761.4,1015.9,761.4,1015.9,761.4,1016C761.4,1016,761.4,1016,761.4,1016
		C761.4,1016,761.4,1016,761.4,1016L761.4,1016z"/>
	<path fill="#010000" d="M761.4,1015.9c0,0,0-0.1,0-0.1C761.3,1015.9,761.3,1015.9,761.4,1015.9z"/>
</g>
</svg>
